<svg xmlns="http://www.w3.org/2000/svg" enable-background="new 0 0 6700 3800" viewBox="0 0 6700 3800"><path fill="#ffda85" d="M4164.083,1376.027c-36.309,206.044-144.801,387.21-298.367,516.497
					c-167.393,140.883-264.291,348.287-264.291,567.068h-597.063c0-219.217-97.77-426.459-265.271-567.885
					c-189.985-160.424-310.671-400.273-310.671-668.429c0-26.62,1.198-52.912,3.538-78.933
					c165.651,70.768,280.459,77.028,366.524,83.18c8.927,114.262,28.743,227.708,58.901,338.324
					c43.929-64.943,87.915-129.832,131.846-194.721c81.165,17.637,157.05,58.792,216.06,117.257
					c21.938,21.72,42.57,46.489,70.986,58.574c50.626,21.666,285.467,6.369,296.245,8.656
					c10.887,2.286,170.115,159.499,170.115,159.499c6.968-66.14-1.905-137.344,14.209-201.198
					C3886.074,1522.735,4059.4,1452.783,4164.083,1376.027z"/><path fill="#e8a67b" d="M3139.245,2752.959c-14.428,0-26.459-11.335-27.165-25.901
							c-3.706-76.469-6.396-147.85-8.997-216.881c-16.742-444.322-27.803-737.858-263.751-1210.741
							c-6.711-13.45-1.248-29.796,12.203-36.507c13.451-6.712,29.796-1.247,36.507,12.203
							c58.68,117.605,104.925,226.842,141.376,333.953c33.657,98.898,59.031,196.392,77.572,298.053
							c35.098,192.447,42.231,381.771,50.492,600.989c2.596,68.887,5.28,140.12,8.972,216.297
							c0.728,15.014-10.854,27.777-25.869,28.504C3140.136,2752.948,3139.688,2752.959,3139.245,2752.959z"/><path fill="#e8a67b" d="M3473.115,2752.959c-0.445,0-0.891-0.01-1.34-0.032c-15.015-0.728-26.597-13.49-25.869-28.504
							c3.692-76.176,6.376-147.407,8.972-216.294c8.26-219.219,15.394-408.544,50.492-600.991
							c18.54-101.661,43.914-199.155,77.57-298.053c36.452-107.111,82.696-216.348,141.376-333.953
							c6.712-13.45,23.054-18.916,36.507-12.203c13.451,6.711,18.915,23.057,12.203,36.507
							c-235.948,472.884-247.008,766.421-263.75,1210.743c-2.601,69.031-5.291,140.411-8.997,216.879
							C3499.573,2741.623,3487.54,2752.959,3473.115,2752.959z"/><path fill="#e8a67b" d="M3701.697,1417.574c-31.603,0-69.439-4.437-99.024-29.932
							c-9.846-8.485-17.571-18.343-23.761-28.806c-5.391,2.478-11.042,4.729-16.917,6.64c-29.062,9.45-56.979,8.097-80.731-3.917
							c-12.027-6.083-21.873-14.354-30.016-23.003c-2.615,2.595-5.309,5.101-8.082,7.516
							c-29.298,25.508-67.053,39.091-103.872,39.093c-18.995,0.001-37.735-3.612-54.949-11.067
							c-17.874-7.741-33.036-18.625-46.053-31.638c-30.765,22.778-68.572,36.534-107.623,36.536c-4.017,0-8.039-0.146-12.077-0.441
							c-34.797-2.552-68.93-15.799-98.331-37.845c-9.704,10.007-20.438,19.267-31.958,27.495
							c-22.677,16.195-47.006,28.851-72.313,37.617c-14.208,4.921-29.708-2.607-34.628-16.811
							c-4.92-14.204,2.607-29.708,16.811-34.628c20.093-6.959,40.319-17.498,58.492-30.477c8.833-6.309,17.138-13.505,24.63-21.262
							c-22.179-28.081-36.797-61.158-41.867-95.417c-1.347-9.097-5.443-36.779,11.752-58.201
							c11.917-14.847,30.106-21.928,49.91-19.421c25.765,3.258,51.488,22.618,62.552,47.08
							c15.194,33.586,13.485,71.55-4.939,109.786c-1.761,3.654-3.664,7.284-5.699,10.877c20.506,15.274,44.561,25.084,69.567,26.917
							c29.685,2.179,59.318-7.815,83.071-25.27c-14.193-24.583-24.731-51.764-33.602-78.01c-5.388-15.943-16.6-49.117,0.08-77.887
							c9.183-15.84,25.582-26.73,44.991-29.879c22.263-3.613,45.344,2.88,61.74,17.369c23.212,20.511,34.401,53.959,30.698,91.767
							c-2.925,29.874-14.71,57.874-32.543,81.703c8.516,8.479,18.096,15.378,28.97,20.087c31.249,13.534,72.962,5.666,101.44-19.128
							c4.156-3.618,8.072-7.587,11.729-11.865c-16.553-30.309-23.73-60.013-21.363-88.594c2.142-25.857,19.745-51.534,41.857-61.056
							c16.562-7.131,33.972-4.889,47.766,6.151c20.853,16.69,20.105,43.754,19.859,52.648c-0.909,32.809-8.96,64.012-23.031,91.094
							c7.693,9.846,14.525,16.009,21.597,19.587c15.635,7.907,34.863,4.164,53.038-4.838c-1.733-6.455-3.229-12.676-4.624-18.482
							c-3.891-16.191-11.005-56.987,6.937-86.07c8.298-13.451,20.728-22.439,35.949-25.993c17.47-4.08,35.857,0.74,50.443,13.221
							c17.079,14.617,26.677,37.29,25.046,59.171c-1.99,26.718-16.885,51.927-45.536,77.069c-0.786,0.689-1.598,1.392-2.436,2.107
							c3.737,6.75,8.151,12.576,13.559,17.236c14.261,12.29,36.129,17.425,70.868,16.646c14.995-0.346,27.485,11.573,27.821,26.603
							c0.337,15.029-11.573,27.484-26.602,27.821C3707.492,1417.536,3704.62,1417.574,3701.697,1417.574z M3609.504,1230.604
							c-0.844,0.205-1.197,0.288-1.989,1.57c-3.606,5.846-5.083,20.785-1.554,39.142c7.72-9.197,11.796-17.581,12.376-25.369
							C3618.894,1238.48,3612.204,1230.824,3609.504,1230.604z M3229.11,1166.695c-1.11,0-2.21,0.083-3.277,0.257
							c-1.532,0.249-5.243,1.082-6.615,3.449c-4.301,7.418,1.794,25.452,4.397,33.153c5.817,17.21,12.386,34.859,20.311,51.334
							c6.143-11.839,10.154-24.609,11.45-37.839c1.951-19.919-2.747-36.992-12.567-45.668
							C3239.491,1168.447,3234.193,1166.695,3229.11,1166.695z M2993.44,1183.498c-0.541,1.241-1.7,5.349-0.16,15.758
							c2.894,19.555,9.985,38.162,20.183,54.772c5.904-15.517,9.348-35.535,0.583-54.91
							C3009.885,1189.916,2998.126,1183.327,2993.44,1183.498z M3452.627,1205.973c-0.299,1.031-0.505,2.065-0.589,3.078
							c-0.174,2.098-0.257,4.22-0.251,6.363C3452.157,1212.289,3452.438,1209.141,3452.627,1205.973z"/><path fill="#657285" d="M3050.924,2459.605h503.964c47.671,0,86.315,38.645,86.315,86.316v448.526
				c0,111.708-90.557,202.265-202.265,202.265h-272.068c-111.708,0-202.265-90.557-202.265-202.265v-448.523
				C2964.606,2498.251,3003.252,2459.605,3050.924,2459.605z"/><polygon fill="#fffcee" points="3537.795 1702.91 3565.044 1771.934 3678.564 1719.453 3599.935 1801.887 3660.254 1856.47 3576.257 1869.303 3622.331 1969.447 3537.795 1891.324 3463.391 1960.083 3483.892 1859.591 3428.941 1848.839 3483.258 1818.374 3384.337 1689.015 3510.545 1771.934"/><path fill="#657285" d="M2311.367,2204.305l-51.646,361.524h-291.428l-81.158,568.104H1433.39l77.469-568.104H470.565
			l44.267-324.628l925.936-1637.913l391.031,151.248l-807.887,1449.769h542.282l136.491-623.44h402.099l-88.534,623.44H2311.367z"/><path fill="#657285" d="M6135.246,2204.305l-51.646,361.524h-291.429l-81.155,568.104h-453.745l77.466-568.104H4294.443
			l44.267-324.628l925.939-1637.913l391.031,151.248l-807.887,1449.769h542.279l136.491-623.44h402.099l-88.535,623.44H6135.246z"/></svg>