<svg height="636" xmlns="http://www.w3.org/2000/svg" data-name="Layer 1" viewBox="0 0 500 500"><path fill="#fff" fill-rule="evenodd" d="m155 473.71-25.66-.17s-2.42-2.42-1.54-9.06 2.27-50.1 1.89-60.94-1.85-41-1.85-41-5.68 35.85-8.37 46.87-9.47 48.75-9.91 54.23a92.37 92.37 0 0 1-1.64 10.84s-2.82 1.68-16.7 2.7-27.16-3.82-27.16-3.82 3.08-16.8 4.57-27.2 20.9-110.71 20.9-110.71-8.12-10-9.73-16.43.47-7.27 3.65-11.4 9.43-24.14 13.2-35.51 11.41-29.48 16.12-34 17.54-9.53 26.47-12.25 29.72-7.15 34.24-14.52 5.52-12.3 7.14-24.09a110.85 110.85 0 0 0 .86-21.31s-3.58-6.33-5.51-10.56-5.4-17.21-5.4-17.21-2.32 1.78-7.14-2.85-9.9-10.38-10.27-15.5-2.5-7.89 1.86-12.48-3.3-7.13-3.63-9.09-4.78-18.18-1.89-28.1 7.17-14.9 11.3-16.51 10.34-8.83 12.52-10.83 16.95-11 19.47-12.3 13.35-6.31 19.06-3 14.21 8.14 19.54 8.1 14.9-.71 20.3.11 14.18 8.51 14.18 12.6-3.56 8.89-3.61 10.94 7 8.31 9.31 12a27 27 0 0 1 4 19c-1.39 8.83-4.09 18-7.43 20.82a56.76 56.76 0 0 1-9.09 5.57 30.4 30.4 0 0 1-2.46 10.5c-2.3 5-4.37 8.79-6.26 10.8s-7.32 4.88-7.32 4.88a73.8 73.8 0 0 1-5.12 14.34 95.2 95.2 0 0 1-8.2 13.46 119.92 119.92 0 0 1 1.63 16.48c.36 9.88 1.42 23.49 1.42 23.49s10 8.94 20.69 10.08 22.52 3 29.53 6.48 9.64 11.21 12.69 24.39 9.06 30 13.52 39.14 8.37 16.59 8.37 16.59 5.64-12.76 11.44-24.64 19-37.61 19-37.61-.65-22.61-2-30.38-3.5-16.3-7.28-21.5-8.72-8.09-6.49-10.4 7.26-3.39 11.57.9 10.34 19.17 13.41 17 4.07-6.54 5.66-11.91 11-26.89 14.52-30.27 3.73 3.07 2 10.3-7.82 20.87-8.39 22.84 3.26 1 7.07-.59 6.74 0 7.18 2 .83 4.23.83 4.23 3.42-3.42 4.65-.74-.79 7.54-.79 7.54 3.32 1 4.33 2.88.7 7 .11 8.55 1.69 2-2.46 9.81-14.79 19.71-15.63 21.96-7.94 21.21-13.52 40.7-13.32 47.25-16.69 60.76-12.92 32.7-18.48 39.27-11.31 11.69-19 10-16.24-10.47-20-17.91-10-18.67-10-18.67 3.79 28.42 4.61 49.2 1.21 54.61 1.21 54.61-11.09 1.48-44.17 3.26-85.23 5.24-85.23 5.24Z"/><path fill="#afd2ff" d="M140.82 425.93v.1Z"/><path fill="#acd8d5" d="M144.08 463.41c-.17-3.52-.39-7-.65-10.53-.2-2.89-.58-5.76-.87-8.64q-.92-9.17-1.74-18.34s0-.08 0-.12a1.94 1.94 0 0 0 0-.24v-.56c-.94-11.47-1.77-22.95-2.57-34.43v-.14c-.81-11.95-1.32-23.92-2.22-35.87.12-3.67.18-7.34.3-11 .12-3.89.32-7.78.42-11.67s.16-7.92.05-11.88c-.07-2.08-.18-4.15-.36-6.22-.09-1-.25-2.08-.4-3.11-.08-.51-.22-1-.33-1.51s-.25-1-.38-1.5a11 11 0 0 0-1.07-2.78 3.3 3.3 0 0 0-2.44-1.78 2.61 2.61 0 0 0-2.26 1 7.83 7.83 0 0 0-.82 1.24c-.22.42-.43.84-.62 1.27a2.76 2.76 0 0 0-.69 1.52l-.15 1.28c-.13.53-.24 1.08-.33 1.62-.33 2-.49 4-.75 5.95s-.52 3.8-.8 5.7c-.45 2.6-.84 5.23-1.45 7.81-.21.7-.44 1.39-.69 2.08l.09-.23c-.05.14-.11.29-.17.44a.36.36 0 0 0 0 .09c-.47 1.19-1 2.34-1.52 3.49l.11-.21c-.44.85-.87 1.68-1.38 2.48-.55 0-1.11-.06-1.67-.11s-1.32-.27-2-.44c-2.31-.72-4.6-1.49-6.84-2.41-2.47-1-4.9-2.08-7.33-3.18a34.16 34.16 0 0 1-3.09-1.81c-1.37-.95-2.7-2-4-3-1.48-1.11-3-2.21-4.36-3.43-.53-.5-1-1-1.51-1.55L88.1 321c-.41-.58-.78-1.18-1.13-1.79s-.64-1.24-1-1.86l-.15-.34 1.18-2.15c1.93-3.57 3.83-7.15 5.67-10.77s0 0 0 .06c.07-.15.15-.3.23-.45.61-1.31 1.19-2.63 1.69-4s.94-2.75 1.38-4.13c.84-2.7 1.56-5.44 2.3-8.17s1.54-5.43 2.26-8.17 1.48-5.49 2.25-8.22l-.11.41c.66-2.33 1.31-4.67 2-7s1.64-4.72 2.55-7.05a49.38 49.38 0 0 1 3.14-6.41c.62-1 1.25-1.95 1.92-2.91l.83-1c1.82-2.05 3.68-4.06 5.69-5.92.68-.55 1.36-1.1 2.08-1.62s1.17-.8 1.76-1.19c.69-.42 1.38-.82 2.1-1.18a18.87 18.87 0 0 1 1.81-.71c3.17-.93 6.4-1.65 9.52-2.72a50.16 50.16 0 0 0 4.78-1.84c1.53-.7 3-1.53 4.42-2.37l.75-.39c1.23-.47 2.46-.91 3.71-1.34s2.46-.84 3.71-1.23 2.64-.77 3.93-1.24a38.39 38.39 0 0 0 4-1.61c1.29-.65 2.54-1.35 3.79-2.06s2.5-1.4 3.8-2a40.73 40.73 0 0 0 3.34-1.75l.61-.37c.23.25.45.5.69.74.51.53 1.1 1 1.65 1.46s1 .87 1.57 1.29c.8.7 1.55 1.47 2.36 2.16 1 .83 2 1.62 3 2.38a12.76 12.76 0 0 0 5.19 2.41c1.34.35 2.67.65 4 .92a50.15 50.15 0 0 0 12.3.67 78.6 78.6 0 0 0 12-1.13c2.08-.43 4.14-.93 6.17-1.55 1.76-.53 3.54-1 5.27-1.66a57.79 57.79 0 0 0 6-2.49 16.07 16.07 0 0 0 2.66-1.75 17.51 17.51 0 0 0 3.1 1.75 42.89 42.89 0 0 0 4.84 1.61c2.87.79 5.87 1.2 8.79 1.76 2.73.52 5.45 1.07 8.19 1.43s5.68.9 8.5 1.54h.25l.29.08h.27a25.29 25.29 0 0 1 2.55.83c1 .43 2 .9 2.95 1.42.71.43 1.4.88 2.08 1.35s1.45 1.16 2.13 1.78 1.05 1.17 1.55 1.78.91 1.31 1.34 2c.27.49.52 1 .76 1.48.84 2.08 1.49 4.24 2.14 6.38s1 4.1 1.6 6.14c1.12 4 2.25 8 3.57 11.89s2.63 7.56 4.1 11.29 2.81 7.26 4.16 10.91c.68 1.84 1.42 3.67 2.14 5.5a55.92 55.92 0 0 0 2.42 5.42v.06l.09.17v.06l.06.12c.85 1.58 1.72 3.16 2.62 4.71s1.74 3.11 2.68 4.62c-.26.42-.53.82-.81 1.22-.82 1.07-1.74 2.07-2.66 3.06l.24-.25c-2.43 2.62-4.9 5.18-7.53 7.59-2.22 1.86-4.53 3.61-6.85 5.36l.22-.16c-1.45 1-2.9 2.07-4.44 3a18.76 18.76 0 0 1-2.11 1c-.54.21-1.08.39-1.63.55s-1 .22-1.48.29a17.58 17.58 0 0 1-1.76.13h-.55c-.52-3-.95-6-1.35-9.07-.47-3.48-.86-7-1.4-10.45v.29c0-.16-.05-.31-.08-.47v.21l-.15-1v.29l-.18-1.21v.28c0-.22-.07-.45-.11-.68v.28c0-.17-.06-.33-.08-.5s0-.07 0-.11v-.13c-.15-.94-.29-1.87-.44-2.81l.05.28c-.48-3.07-1-6.13-1.64-9.17a26.92 26.92 0 0 0-1-4 6.68 6.68 0 0 0-1.41-2.45 5.65 5.65 0 0 0-.87-.75 3.36 3.36 0 0 0-6 2.18q.39 7.32.79 14.63c.51 9.71.77 19.44 1 29.16.11 4.95.06 9.91 0 14.86 0 4.62-.06 9.26.21 13.88.24 4.36.59 8.72.94 13.07.52 7.3 1 14.59 1.64 21.89.53 6.18 1.1 12.35 1.89 18.5.73 5.76 1.32 11.5 1.78 17.27.3 4.09.62 8.18 1.13 12.24s1.11 8.3 1.69 12.44V458.19l.06.49v-.29c.39 2.95.72 5.9 1 8.86-3 .37-5.95.76-8.93 1.16-7.41.9-14.86 1.48-22.28 2.25l-6.67.69-2.74.1h.25c-5.68.25-11.38.46-17 1.06-5.36.57-10.7 1.22-16.08 1.54-4.4.13-8.8.25-13.2.26-4.85 0-9.71-.08-14.55-.28s-9.94-.45-14.91-.46c-4.81 0-9.63.38-14.44.68l-2 .13c-.21-3.65-.4-7.29-.58-10.94"/><path fill="#acd8d5" d="M141.91 415c-2.17-8.87-2.08-18-2.59-27.09-.2-6-.78-12-.88-18s.6-12.16.6-18.24a397.69 397.69 0 0 0-3.23-53.1c-1.73-1 .64-3.9 1.75-1.88 1.36 4.9 1.38 10.11 2.11 15.13a308.05 308.05 0 0 1 3 41.39c-.7 13 .92 25.46 1.78 38.27.26 3.85.55 7.71.92 11.55s1.19 7.77.85 11.67a2.19 2.19 0 0 1-4.26.29"/><path fill="#acd8d5" d="M140.36 441c-1.08-12.27-3.49-24.42-3.55-36.76-.09-7.59-1.06-14.49-.89-21.94.34-16.61.13-33.22 1.06-49.82.19-4.11.46-8.21.91-12.31.09-.88.17-1.76.3-2.64a.89.89 0 0 1 1.77.24 103.31 103.31 0 0 0-.8 12.05c0 6.35.23 12.69.3 19-.06 8.29-.25 16.57.28 24.86-.05 12.07 2.12 24 2.54 36 1.36 14.24 3.92 28.36 5.06 42.63.38 7.26.55 14.67 1.09 21.74l-1.72.11-4 .26c-1.27-11.08-.82-22.41-2.33-33.48M175.53 393.79c-8.32-2-6.82-12.41.94-9.63 7.5.15 6.29 11.25-.94 9.63"/><path fill="#acd8d5" d="m135.63 404.91-.15-4.06v.32q-.11-3-.23-5.94c.15-13.78 1.66-27.55.69-41.32.11-3.48.17-7 .28-10.45.12-3.88.33-7.77.42-11.67 0-1.22.06-2.45.08-3.68.08-1.53.15-3.07.19-4.6.27-8.12 0-16.23-.49-24.34a1.62 1.62 0 0 1 1.6-1.6c2.25.16 1.49 3 1.77 4.54.22 2.95.43 6.15.62 9 1.08 11.34.48 22.74 1.28 34.09a242.34 242.34 0 0 1 1 35.74c-.44 7.69.19 15.43-.32 23.1a3.39 3.39 0 0 1-3.48 3 3.44 3.44 0 0 1-3.27-2.08"/><path fill="#acd8d5" d="M136.45 431.43v-.66c-.05-2-.14-4-.2-6-.1-4-.12-7.9-.28-11.85s-.33-8.06-.48-12.09v.32l-.06-1.8a166.57 166.57 0 0 1 2-20.3 1.15 1.15 0 0 1 1.3-1 1.16 1.16 0 0 1 1 1.3c-2.2 10.83-1.61 21.84-1 32.8-.29 6.21 1.3 12.36.81 18.55a1.71 1.71 0 0 1-3.09.7"/><path fill="#acd8d5" d="M137.26 471.68v-1c-.05-1.28-.09-2.55-.14-3.82v-.35.25-.39.35-1.49q0-4.17-.09-8.32c-.05-2.69 0-5.37-.07-8.05-.05-4.06-.26-8.11-.33-12.16 0-2-.07-3.95-.11-5.93s-.14-4-.19-6c0-.7 0-1.41-.05-2.11.33-3 .6-6.11.77-9.09.37-1.53-.56-5.68 1.6-5.69a1.37 1.37 0 0 1 1.36 1.36c-.44 6.34-.79 12.67-.6 19a2.74 2.74 0 0 1 3.73 1.08 2.57 2.57 0 0 1 .31.92 22.62 22.62 0 0 1 0 3.86c-.16 4.17-.34 8.33-.21 12.5 0 6.84.41 13.66.56 20.5.36 2.41.87 4.79 1.29 7.19l-7.62.5-.12-3.15M137.08 466.88v.28a2.72 2.72 0 0 0 0-.28"/><path d="M164.56 123.7c1 2.38-.34 3.29-2.61 2.53a5.75 5.75 0 0 0 2.52 6.06 1.15 1.15 0 0 1-1.49 1.76 7.55 7.55 0 0 1-3.38-6.38c-.08-1.54.39-3.68 2.27-3.74a31.64 31.64 0 0 0-3.27-5.63c.65 2.23-2.22 3.24-2.9 1.1-.58-2.63 1.48-5.65 4.25-3.92 2.45 2 3.32 5.41 4.61 8.21M252.18 117.43a1.38 1.38 0 0 1 2.33 1.49c-2.09 3.42-4.24 6.89-5.25 10.78 1.7 1.46.85 4.12-.4 5.61-.59.89-1.61 2.45-2.73 1.34a1.16 1.16 0 0 1 .08-1.64.71.71 0 0 1 .14-.1 4.61 4.61 0 0 0 1-3c-3.19-2.05 3.51-11.91 4.85-14.5M380.12 116.05c-1.25-2 1.68-3.41 2.72-4.79 2.9-2.94 6.33-5.25 9.53-7.83 3.47-3.19 6.07-7.21 8.5-11.22a38.66 38.66 0 0 0 5.52-15.62c.33-8-2.15-17-9-21.66-10.47-7.32-21.12-9.56-31.18-.22A28.3 28.3 0 0 0 356.79 80a79.92 79.92 0 0 0 5.86 16.35c1.3 2.64 2.72 5.22 4.18 7.77a1.52 1.52 0 0 1-2.64 1.51c-4.93-8.9-9.68-18.34-11.2-28.5a30.47 30.47 0 0 1 6.88-22.36c4.31-4.53 9.63-8.53 15.84-9.86 8.94-1.73 18.22 2.22 25.54 7.14 5.56 3.91 8.35 10.77 9.61 17.25 1.47 5.91 0 11.93-1.74 17.61a81.83 81.83 0 0 1-8.38 15.48c-3.09 4.59-7.79 7.52-12.4 10.39-2 1.31-4 2.54-6.08 3.68a1.68 1.68 0 0 1-2.14-.44"/><path d="M387 124.57a2 2 0 0 1-1.18 2.37 41.13 41.13 0 0 1-5.2 1.61 22.06 22.06 0 0 1-10.65.19 12.68 12.68 0 0 1-1.33-.4c-1.76-.81-4.31-1.35-4.87-3.47-.66-2.46 2.25-3.28 3.95-4.11a13.6 13.6 0 0 1-3.65-2.23 2.23 2.23 0 0 1 .18-3.16 2.27 2.27 0 0 1 1.17-.55c2.5-.37 5 0 7.53-.22a23.46 23.46 0 0 1-7.48-4.41 2.21 2.21 0 0 1 0-3.11c1.63-1.59 3.29.2 4.62 1.2l.18.12a20.14 20.14 0 0 0 4.82 2.3 22.3 22.3 0 0 0 4 .91c.31 0 .63.09.94.11.74.08 1.49.11 2.24.16l.59.05a10 10 0 0 1 1.34.18 2.13 2.13 0 0 1 1.48 2.4 1.81 1.81 0 0 1-.42.88c-1.27 1.42-3.31 1.65-5.07 2.1a15.83 15.83 0 0 1 4 0 2.84 2.84 0 0 1 .66 5.42c-2.39.63-4.94.23-7.34 1 2.43-.32 4.86-.67 7.31-.8a2 2 0 0 1 2.19 1.48"/><path d="M372.7 136.49c-5.61-2-2.58-15.73 3.23-10.2a3 3 0 0 1 4.46 3.66c-1.36 3-3.51 8.18-7.69 6.54M380.47 113.23a2 2 0 0 1-1.34-2.4c2.39-9.53 5-19.12 9-28.09a2.55 2.55 0 0 1-.39-.24c-2.2 2.89-6.53 2.12-6.83-1.72a18 18 0 0 1-4.21 3.32 119.41 119.41 0 0 1-.6 18.72c-.24 2.48-.51 4.94-.85 7.4a2.57 2.57 0 0 1-5.09-.76 125.82 125.82 0 0 0 1.59-24.21c-4.78-1-4.42-7.49-4-11.31.28-3.18 3.2-6.57 6.26-3.86 2.1 2.54 1.87 6.21 2.39 9.31 1.57-1.44 2.77-3.27 4.42-4.61a2.55 2.55 0 0 1 1.81-.48c1.58.24 2.34 1.86 2.41 3.32.69-1.14 1.11-2.62 2.46-3.15 2.68-.85 3.87 1.6 3.54 3.93 1.62-1.83 3.41-3.82 5.88-4.39a3.81 3.81 0 0 1 4.61 4.42 12 12 0 0 1-1.19 4.31c-1.71 2.65-5.88 4.49-8.46 2-1.49 3.43-2.35 7.09-3.66 10.59-1.43 3.88-3 7.71-4.09 11.69-.48 1.61-.88 3.24-1.24 4.88a2 2 0 0 1-2.4 1.33m14.25-31.74a3.52 3.52 0 0 0 2.15-2.95 10.75 10.75 0 0 0-2.7 2.46 2.33 2.33 0 0 0 .53.51m-23.11-.11c-.1-1.67-.22-3.35-.42-5a11.67 11.67 0 0 0 .21 4.56c0-.07 0-.14-.07-.21a4.81 4.81 0 0 0 .2.53s.05.09.08.14M337 113.47c-2.25-4.41 6.66-5.72 9.38-7.28a2.63 2.63 0 0 1 3.39 1.41c1.54 3.86-6.16 4.93-8.58 6.61a2.86 2.86 0 0 1-4-.5l-.17-.24M334.12 81.36a.75.75 0 0 1 .66-.83l3.69-.49c1.06.08 3.49-1.15 3.76.34.08 1.51-2.51.89-3.5 1.21-1.29.14-2.58.3-3.86.43a.76.76 0 0 1-.75-.66M349.77 48.44c-2.1-2.4-4.33-4.68-6.52-7a1.15 1.15 0 1 1 1.63-1.63c2.26 2.32 4.46 4.72 6.79 7a1.27 1.27 0 0 1-1.84 1.74l-.07-.09M381.75 32.36a1.82 1.82 0 0 1-3.55.68c-.56-2.75-1.14-5.5-1.57-8.27a1.86 1.86 0 0 1 3.69-.45c.39 2.7.95 5.37 1.43 8M405.46 39.63c-4-1 1.41-11.9 2.28-14.51a2.47 2.47 0 1 1 4.37 1.74c-.68 1.95-1.33 3.9-2 5.88-.93 2-1.68 7.73-4.68 6.89M418.5 53.47a2.78 2.78 0 0 1 1-3.77c2.65-1.45 5.38-2.67 8.15-3.86a2.57 2.57 0 0 1 2.25 4.6c-2.55 1.35-5.14 2.63-7.65 4.05a2.79 2.79 0 0 1-3.77-1M425.32 81.14c.16-3.88 4.62-3.22 7.35-3.15 2.36.06 6 .21 6 3.37s-3.73 3.08-6.11 3c-2.85 0-7.11.85-7.25-3.24M423.17 118.51c-2.17-.79-4.68-1.29-6.78-1.89a3.17 3.17 0 1 1 2.5-5.82 3.06 3.06 0 0 1 .84.53c1.78.61 3.69.89 5.35 1.81 3.2 1.43 1.44 6.34-1.91 5.37M175.44 104.39c-3.49-2.44 3.83-7 5.95-7.81a16 16 0 0 1 4.18-1.18c1.63-.21 7.15-.08 6.63 2.42a1.49 1.49 0 0 1-1.57 1.18 12.23 12.23 0 0 0-7.1 1c-1.93 1.06-4.37 1.74-5.66 3.62a1.82 1.82 0 0 1-2.42.77M178.53 115.78c-3.1-1.36.84-5.62 2.08-7.2 2.15-1.76 6.76-3.35 9.33-1.83 1.24.9 3.28 2.83 1.72 4.3a1.64 1.64 0 0 1-2.17 0c-.49-.41-.9-1.12-1.57-1.2-1.88.34-4 .81-5.37 2.25s-1.66 4.46-4 3.71M186.46 124.51a9 9 0 0 1-.35-4.85 16.26 16.26 0 0 1 1.75-4.35 2.21 2.21 0 0 1 4.07 0c1.54 2.4.91 8.52-1.3 10.33a2.92 2.92 0 0 1-4-.91l-.15-.26M221.2 111.44c-2.38-2.12.9-3.86 2.66-4.73 1.26-.84 2.95-.6 4.36-.34 1.25.38 4.11 1.89 3.12 3.48-.91 1.18-2 .12-2.83-.45h.05l-.35-.1h-.2.11a.11.11 0 0 0 .08 0 7.18 7.18 0 0 0-4.2 1.49 2 2 0 0 1-2.73.71h-.07M227.5 124.79c-2.43-1.61-2-5.18-.18-7.07.47-1.28.55-2.77 1.39-3.87 1.74-2 4.88-.48 5.24 1.89.89 3.66-1.4 12-6.45 9.05M208.25 138.1a11.2 11.2 0 0 1-4-1 1 1 0 1 1 1-1.85 3 3 0 0 0 .55.25c1.16.55 3.59-.2 3.64 1.6a1.1 1.1 0 0 1-1.18 1M210.31 145.94a53.38 53.38 0 0 1-7.48-.35c-1.6-.46-10.2-1.22-8.9-3.69.75-1.3 2.17-.08 3.21.11 2.16.68 4.44.56 6.67.74a48.32 48.32 0 0 0 6.59.18c2.3-.24 4.51-.9 6.81-1.11a1.41 1.41 0 0 1 1.38 1c.47 3.06-6.22 3.25-8.28 3.16"/><path d="M204.61 159.18c-6.5-1.49-10.06-10.59-11.47-16.38a1.92 1.92 0 0 1 3.82.4 1.78 1.78 0 0 1-.23.74c.89 5 4.07 11.54 9.87 11.53a20.46 20.46 0 0 0 5.52-1.66 17.9 17.9 0 0 0 6.85-8.59c.71-1.13 1.2-3.49 3-2.95 1.76.78.47 3 .2 4.36a18.23 18.23 0 0 1-3.46 6.22c-1.86 2.05-3.78 4.33-6.45 5.33-2.44.74-5 1.45-7.61 1"/><path d="M203.71 153.05c-2.11-.24-8.56-8.89-5-9.8 1.07-.2 1.57.81 1.67 1.7a5.07 5.07 0 0 0 1.81 2.9c2.7 1.77 6.4.82 9.24-.15s5.49-7.29 8.7-4.29a2.38 2.38 0 0 1-.26 3.31c-1.42 1.19-2.72 2.5-4.17 3.65a15.15 15.15 0 0 1-12 2.68"/><path d="M204.1 157c-3.94-1.38-5.89-5.77-7.21-9.45-.41-1.46-1.77-3.76.31-4.53a1.68 1.68 0 0 1 2.11 1.08c.93 3.21 4.26 11.2 8.55 8.07 3.25-1.71 6.47-3.66 8.79-6.57a2.33 2.33 0 0 1 4.17 1.83c-.43 2.31-2.46 3.81-4.12 5.29-3.33 2.81-8.13 5.77-12.6 4.28"/><path d="M220.08 144.79c-.87 0-1.72-.28-2.59-.33-.9.26-2.23.53-2.47-.71-.22-1.4 1.41-1.49 2.41-1.55a12.21 12.21 0 0 1 3.25-.09 1.38 1.38 0 0 1-.61 2.68"/><path d="M220.25 144.54a24.36 24.36 0 0 0-3.08.17c-.78.07-1.72.28-2.29-.41a1.43 1.43 0 0 1 1.18-2.32 5.79 5.79 0 0 1 2.13-1 10.73 10.73 0 0 1 1.5 0 3.27 3.27 0 0 1 1.7-.11c2.85.76 1.73 5.46-1.14 3.69"/><path d="M107.17 471.68c.58-9.27 2.83-18.27 4.4-27.39 2.21-14.42 4.43-29.05 7.15-43.36 1.39-6.37 3.29-12.56 4.45-19 1.5-10.16 3.66-20.21 5.25-30.36a1.24 1.24 0 0 1 0-.16c-.86 1.57-3.45 1.32-5.14 1.37a42.24 42.24 0 0 1-22.26-6.6 66.68 66.68 0 0 1-11.17-8.41c-1.93 10.25-2.82 20.68-4.42 31-1 5.88-2.19 11.72-3.24 17.59-1.07 6-2.54 12-3.7 18-.89 5.07-1.56 10.17-2.59 15.22-2.11 9-4.42 17.95-6.13 27.05-1.87 8.59-2.27 17.4-3.83 26a11.49 11.49 0 0 0-.31 2.26l-3.38-.18-1-.05c.21-3.19.82-6.34 1.22-9.52.82-5.83 1.46-11.71 2.69-17.48 4.24-20 8.24-40.14 13-60 1.63-8.3 3.77-16.49 5.19-24.83 1.38-8.18 2-16.45 3.23-24.65a11.08 11.08 0 0 1 .68-3c-1-1-1.94-2.13-2.83-3.25-3-4.18-9.21-11.9-7.83-17.21a52 52 0 0 1 5.24-8.48 69.14 69.14 0 0 0 5.15-10.11 111.86 111.86 0 0 0 8.01-20.5c1.55-6.16 3.46-12.2 5.41-18.25 3.91-9.16 9.18-18.39 17.37-24.38 7.33-4.53 15.8-6.8 24-9.21 8.6-2.22 17.42-4.22 25.08-8.88 1.08-.64 2.27-1.14 3.32-1.83a2.28 2.28 0 0 1 .51-1.62 27.1 27.1 0 0 0 2.87-3.93 63.21 63.21 0 0 0 6.15-28c0-3.88-.26-7.75-.62-11.61a2.21 2.21 0 0 1-.06-1.52 37.14 37.14 0 0 1-6.47-12.71c-.85-3-2.07-5.86-2.85-8.87-.28-1.18-.53-2.36-.76-3.55a1.94 1.94 0 0 1-1.63-.06c-5.12-2.09-8.13-6.76-10.84-11.31-3.2-5.58-6.16-12-4.5-18.59a7.57 7.57 0 0 1 1.89-3.85 2.28 2.28 0 0 1-1-.67c-7.4-9.1-7.81-21.79-5.91-32.88 1.76-8.31 4.79-18.42 13-22.44a17.24 17.24 0 0 1 3-1.1 28.69 28.69 0 0 0-.24-2.93c-.24-2.52-.15-5.28 1.23-7.49a3.39 3.39 0 0 1 4.63-1.26 3.28 3.28 0 0 1 1 .88c.84-5.49 4.7-6.35 8.29-2.37 2.72-4.66 7.29-7.69 12.35-9.34 4.23-1.56 8.57-3.08 13.12-3.21 5.86-.37 10.84 2.84 16 5.15 5 2.08 10.53.93 15.78.77 9.53-.46 19.81 1.9 26.81 8.72 2.84 2.51 5.48 5.63 5.56 9.61.54 4.42-2.47 8.44-2.24 12.72.44 1.17 1.74 1.66 2.67 2.37a23 23 0 0 1 3.3 2.7 18.82 18.82 0 0 1 4.23 7c4.72 12.07 4.2 21.94-1.31 33.62-2.73 4.57-7.22 10.37-13 10.57a2 2 0 0 1-.69 0c-.11 3.49-1.39 6.83-2.71 10-2 5.16-4.7 10.25-9.48 13.35-1.12.85-3.6 2.83-4.87 1.77-.3 1.62-.56 3.25-.78 4.88-1.29 7.49-2.76 14.25-8.61 19.6q-.63.58-1.29 1.14v.16a134.26 134.26 0 0 0 .65 30.58 80.94 80.94 0 0 0 1.62 8c.44 1.71 1.66 3.39 1.62 5.19a15.65 15.65 0 0 0 1.34 1.36 19.3 19.3 0 0 0 4.61 1.51c4.06 1.87 8.39 2.56 12.8 3.08 5.61 1 11.36 1.06 16.93 2.27a46.6 46.6 0 0 1 10.08 3.85c10.82 6 15.37 25.91 19.28 37.15 4.25 11.26 6.9 23.11 12.16 34a39.48 39.48 0 0 0 2.51 4.55 30.55 30.55 0 0 1 2.21 3.52c.5-1.1 1-2.2 1.42-3.32 4.49-9.46 7.81-19.44 12.26-28.92 4.14-9.58 9.48-18.46 14.83-27.37a1.2 1.2 0 0 1 .26-.29 1.49 1.49 0 0 1-.43-.4 76.4 76.4 0 0 1-1.68-17.24 97 97 0 0 0-2.88-17.75c-2-5.18-4.61-10.07-7-15.06-1.52-3.14-4.33-5.82-4.66-9.44-.11-8.09 10.61-5.35 14.22-1.35 5 3.77 7 9.76 10.51 14.67a11.9 11.9 0 0 0 1.43 1.32c.06-.17.12-.33.16-.48 2.07-6.76 5.49-13.22 8.74-19.42 2.67-5.51 4.08-11.54 7.16-16.86a18.37 18.37 0 0 1 4.35-5.7c1.23-1.54 3.46-2.34 4.25.08a25.28 25.28 0 0 1 .21 7.32 39.93 39.93 0 0 1-1.07 8.92 95.3 95.3 0 0 1-5.46 13.81c-.59 1.58-1.06 3.25-1.66 4.86 3.68-2.48 9.35-4.76 12.14-.49a8 8 0 0 1 .65 2.85c4.28-1.06 8.82 3.56 7.59 8.21a13.84 13.84 0 0 1-.38 1.44c2.84.18 4.29 4.8 3.68 7.44a9.71 9.71 0 0 1-1.42 3.71 2.17 2.17 0 0 1 .77 2.06c.55 4.27-1.47 8.24-3.66 11.75a52 52 0 0 1-11 13.8 30.61 30.61 0 0 0-5 7.1c-.4.93-1 2.24-2.2 1.86-3.65-1.36 4.17-9.82 5.43-11.61 2.1-3 4.35-5.84 6.46-8.81a32.4 32.4 0 0 0 5.09-11.12c-.39.44-.77.87-1.13 1.32-1.79 1.82-3.53 3.85-5.84 5-2.29.87-5 1.91-7.4 1-1.55-.66-3.21-2.58-1.92-4.22a2.2 2.2 0 0 1 3.06-.37c1 1.15 2.51.77 3.83.61 2.75-.72 4.61-3.16 6.51-5.11 2.32-2.7 5.46-6.13 3.67-9.9a2 2 0 0 1-.88-.5c-2.2 3.35-5.38 6.16-8.06 9.07-2.49 2.68-6 4.78-9.77 4.5-2.26-.35-4.52-2.18-2.91-4.51a2.63 2.63 0 0 1 3.72-.29 2.68 2.68 0 0 1 .45.5 4.32 4.32 0 0 0 4.25-1.45 1.29 1.29 0 0 0-.16.18c1.87-3.93 14.75-13.88 8.7-17.41a2.37 2.37 0 0 1-2.75 1c-1.51 3.08-4 6-5.48 8.82-2.41 4.15-7.43 9-12.61 8.13-4.8-2-5.16-9.65-2.65-13.61a24.91 24.91 0 0 1 2.6-3.76 2.52 2.52 0 0 1 1.94-1.07 2.51 2.51 0 0 1-.3-.76l-.19-.1c-1.84-1.14-.43-3.19.08-4.69 1.51-4.05 2-8.4 3.77-12.35 2.42-7.29 7.76-13.82 7.2-21.74-5.07 8.43-10.87 16.75-13.54 26.3-1.42 4.29-2 9.22-4.64 12.94a31.43 31.43 0 0 0-1.83 4.16 1.57 1.57 0 0 1-1.48 1c-1.79 2.23-4.7-.69-6.11-2.12-4.95-5.6-7.66-18.14-17-17-.42 2.36 1.83 4.33 3 6.21a48.15 48.15 0 0 1 4.69 9.49c1.14 3.08 2.9 5.88 3.9 9 1.29 5.12 1.05 10.59 1.15 15.79.41 5.53 1.21 11 1.87 16.49a11.14 11.14 0 0 0 .32 2.51 1.44 1.44 0 0 1-.65 1.43 1.31 1.31 0 0 1 .42 1.57c-.65 1.54-1.37 3-2.08 4.55-2.88 6.37-6.93 12.09-10.24 18.23-1.84 3.76-3.55 7.7-5.58 11.35-3.09 6.24-5.55 12.77-8.25 19.18-2.58 6-5.42 11.92-7.77 18a151.88 151.88 0 0 0-7.23 21.68 2.06 2.06 0 0 1-4-1.14c.83-3.6 2-7.11 3.16-10.62a74.24 74.24 0 0 1 3-7c-4.36 4.73-8.93 9.31-14.47 12.65a37.64 37.64 0 0 1-12 6.09 72.32 72.32 0 0 1-7.31 1.67c.4 3.19.84 6.39 1.3 9.58a.88.88 0 0 1 .05.15c2.41 8.71 6.44 16.87 9.74 25.26a114.62 114.62 0 0 0 6.22 10.13 25.65 25.65 0 0 0 4.68 5.7c2.48 2.08 5 4.37 8 5.48a12.74 12.74 0 0 0 10.21-1c7.34-5.69 11.77-14.16 16.09-22.19 3.5-5.15 4.49-11.39 7.09-17 5.49-10.95 8.26-22.93 11-34.79 1.74-7.89 4.35-15.55 6.29-23.39a259.44 259.44 0 0 1 10.11-36.17c.71-2.19 1.39-4.4 2.1-6.59a1.91 1.91 0 0 1 3.68 1c-2.62 10.61-5.35 21.18-8.74 31.56-2.72 10.15-5.53 20.25-8.75 30.24-3.69 14.09-6.79 28.5-13.25 41.65-4.27 10.41-8.07 21.34-15.52 30-5.11 6.13-10.07 10.67-18.59 10-4.33-.17-8-2.81-11.27-5.37a23.9 23.9 0 0 1-5.78-6.21 113.1 113.1 0 0 1-7.06-11.52c-1.14-2.46-2.3-4.92-3.45-7.39.58 3.86 1.15 7.73 1.68 11.6 1.67 10.54 2.57 21.17 3.63 31.79q2.41 20.21 3.13 40.54c.19 4.07.09 8.35.13 12.39-2 0-4 .14-6 .27-.88-10.77-1.42-21.18-1.92-32-.62-10.64-1.86-21.24-2.68-31.87-1.3-16.83-3.57-33.57-5.24-50.37-.08-.25-.17-.5-.25-.75a2.51 2.51 0 0 1 0-1.41c-.71-7.39-1.29-14.8-1.6-22.23-.35-9.2-.71-18-1.68-27a1.49 1.49 0 0 1 3-.36c.26 2.83.58 5.66.83 8.48.72 8.06.94 16.17 1.88 24.21.12 1.06.23 2.12.36 3.18 3-.93 6.06-1.75 8.86-2.92 4.42-2 7.85-5.31 11.88-7.94 6.64-5.33 14.32-10.4 17.39-18.66-4.06-5.48-6.64-11.87-9.11-18.17s-4.56-12.79-6.44-19.3c-3-10.55-5.31-21.44-10-31.38-3.73-7.26-6-9.71-13.75-12.56-7.53-2.7-15.72-2.19-23.52-3.68a29 29 0 0 1-9.55-2.44c-2.08-.74-4.35-1.26-6-2.75-.24-.25-.55-.59-.9-1a3 3 0 0 1-2.62-.06 14.29 14.29 0 0 1-2.22 2.5c-7.74 5.35-17.64 7.32-26.93 7.24-7.31-.58-14.9-.32-21.53-3.77a53.23 53.23 0 0 1-4.8-3.52 23.87 23.87 0 0 1-3.47-2.53 2.4 2.4 0 0 1-1.37.21l-.49.34c-8.73 6.54-19.62 8.43-29.87 11.42-8.74 2.36-18.12 4.58-25.17 10.55a39.56 39.56 0 0 0-8.62 10.36c-1.34 2.81-2.27 5.79-3.79 8.51-1.1 2.17-1.3 4.65-2.1 6.93-1.56 4.58-2.91 9.13-4.25 13.76-1.54 6.1-4.45 11.71-6.51 17.63-3.45 7.11-6.92 14.24-10.16 21.43 2.79 13.49 18 25.11 30.54 29.36a145.77 145.77 0 0 0 15.13 2.6 2.38 2.38 0 0 1 2 1.84c0-10.35-.21-20.7.47-31q.38-6.62.77-13.24a1.58 1.58 0 0 1 1.56-1.53 1.58 1.58 0 0 1 1.46 1.66c-1.74 23.7-1.86 47.47-2.63 71.21-.12 27.37.67 54.76-.33 82.13-.14 3.47-.63 6.9-.92 10.35a16.15 16.15 0 0 0 1 4.45c-2 .1-4 .22-6 .34a17.47 17.47 0 0 1-.8-8.72c.71-6.81 1.1-13.64 1.66-20.46q2.3-28.12 2.5-56.34c.09-7.53.38-15.06.72-22.59-1.2 6.3-2.46 12.58-3.56 18.89-3.67 24.44-7.37 48.89-12.24 73.12-1 5.21-1.23 10.51-1.71 15.79-.05.4-.09.81-.13 1.21l-3.73.26c.13-1.18.26-2.37.38-3.56m21.42-120.51a.47.47 0 0 1 .09-.12v-.23a2 2 0 0 1-.1.35m54.28-162.69c-.12 6.88-1.07 13.79-4.2 20-.31.59-.8 1.47-1.39 2.39l.05.06c3.18 7.43 11.46 9.83 18.87 10.31 4.48.36 9 .77 13.43-.22a60.07 60.07 0 0 0 15.64-5.31c1-.53 2-1 2.93-1.48a8.13 8.13 0 0 0 1.87-2.13c-1.15-2.53-1.21-5.47-1.41-8.23s-.28-5.31-.36-8c-.13-8-.9-16-.16-24-1.37.9-2.76 1.76-4.12 2.63a23.17 23.17 0 0 1-6.92 2.28 2 2 0 0 1-2.25-1.22c-.69-2 1.53-2.73 3-3.23a25.33 25.33 0 0 0 8.09-4.14 30.65 30.65 0 0 0 2.95-2.13 2.18 2.18 0 0 1 1.2-1 14.23 14.23 0 0 0 2.92-3.8c3.86-6.53 5.14-14.11 7.05-21.35.85-3 1.75-6 2.52-9.09 1.65-6.89 2.74-13.91 4-20.9-1-1.49-3.21-1.77-4.87-2.34a8.23 8.23 0 0 1-3.68-2.26 12.12 12.12 0 0 1-1-1.38 1.33 1.33 0 0 1-1.3-.56c-.66-1.48-1.89-1.92-3.38-2.2a12.85 12.85 0 0 0-3.24-1c-1.67.14-3.66.38-3.91-1.79-5.43 2.14-12.63 4.9-20.64-1.34a17 17 0 0 1-2.21-2 13 13 0 0 1-6.3.73c-9.33-1.16-18.6-5.93-21.1-15-.38 1-.83 2.06-1.27 3.06-1.38 3.16-3.94 5.51-6.67 7.5-.79.46-1.54 1.18-2.35 1.72a1.11 1.11 0 0 1 .36.71 200 200 0 0 0 3.14 21.8c.74 5.18 2.48 10.15 3.17 15.33a119.11 119.11 0 0 0 1.92 12.18c1.53 6.89 3.17 13.56 7.06 19.41.77.87 1.54 1.76 2.33 2.63a2.29 2.29 0 0 1 .68.74 33.08 33.08 0 0 0 3.4 3.19c1.94 1.28 4.17 2.24 6.14 3.44 1.47.8 2.94 1.59 4.39 2.44a1.45 1.45 0 0 1-1.23 2.6 46.79 46.79 0 0 1-9.17-4.17 16.92 16.92 0 0 1-3.23-2.14 160 160 0 0 1-.76 17.24M373.3 196c-.93.66-1.57 1.94-2.78 2.09 2.61 3.89-6.45 5.62-1.93 12.86a3.88 3.88 0 0 0 .76 0c2.13 0 3.32-2 4.79-3.25.92-.86 2-1.49 2.91-2.39 1.36-2.17 4.81-5.37 6.22-8.47a2.34 2.34 0 0 1 .6-2A3.82 3.82 0 0 0 383 192a4.19 4.19 0 0 0-1.52-.29c-2.89 0-6.14 2.72-8.2 4.32M246.08 129c-.64 4-1.51 7.87-2.28 11.8a11.75 11.75 0 0 0 1.15-.5 27.12 27.12 0 0 0 5.61-5.3c3.34-5.33 6.69-11.41 6.75-17.84 0-1.68-.84-4.57-3-4.16a11.66 11.66 0 0 0-4 2.65 1.64 1.64 0 0 1-2.09.16c-.79 4.39-1.54 8.78-2.17 13.19m-92.42-17.6c-1.25 4.85.49 9.53 2.84 13.7 1.94 3.49 4 7.12 6.95 9.87a25.61 25.61 0 0 0 4.79 2.27c-.62-3.87-1.06-7.76-1.46-11.66-.42-2.7-.76-5.4-1.08-8.11-1.73.2-2-2.27-2.63-3.48a26.35 26.35 0 0 0-1.58-2.91 9.27 9.27 0 0 0-2.55-3 2.94 2.94 0 0 0-1.45-.39c-1.87 0-3.48 1.89-3.83 3.76m55.21-18a.68.68 0 0 0 .22.92c.48.27 1 .55 1.48.78s1.1.48 1.66.7a14.73 14.73 0 0 0 3.13.89 10.32 10.32 0 0 0 1.24.08h.43a11 11 0 0 0 1.72-.25 17.54 17.54 0 0 0 2-.6.7.7 0 0 0 .38-.94.71.71 0 0 0-.89-.39l-.41.14a21 21 0 0 1-2.07.55 7.89 7.89 0 0 1-1.09.11h.1-.91a7.12 7.12 0 0 1-1-.16 13.68 13.68 0 0 1-1.79-.54 20 20 0 0 1-2.38-1l-.87-.48a.65.65 0 0 0-.36-.1.67.67 0 0 0-.57.32m-11.72-3.53a.93.93 0 1 0 1-.9.94.94 0 0 0-1 .9m-13.59-5.2a1 1 0 0 0-.05 1.25 25.11 25.11 0 0 0 1.65 1.91 5.52 5.52 0 0 0 1.79 1.31 12.61 12.61 0 0 0 2.12.62c1.57.32 3.16.57 4.74.84h.16a.92.92 0 0 0 .14-1.83q-1.07-.15-2.13-.33c-1-.16-1.94-.3-2.9-.52a11.22 11.22 0 0 1-1.25-.38l-.44-.2-.1-.07-.31-.27c-.26-.25-.5-.52-.74-.8l-.71-.88c-.15-.19-.29-.38-.44-.56a1.09 1.09 0 0 0-.81-.41.93.93 0 0 0-.64.25m85.85 3a1.3 1.3 0 0 0 1.27 1.22h.05a1.29 1.29 0 0 0 1.2-1.32c-.08-.87-.17-1.74-.24-2.61s-.15-1.8-.28-2.69a22.62 22.62 0 0 0-1.14-4.93 18.74 18.74 0 0 0-2.21-4.29 13 13 0 0 0-1.53-1.86c-.51-.5-1-1-1.58-1.46a1.37 1.37 0 0 0-1.91.06 1.36 1.36 0 0 0 .05 1.92l.3.24.09.08-.09-.07.11.09c.54.46 1.07 1 1.56 1.46a11.46 11.46 0 0 1 .81 1 19 19 0 0 1 1.1 1.79 20.08 20.08 0 0 1 .84 1.89 19.32 19.32 0 0 1 .58 1.87 33.53 33.53 0 0 1 .57 3.45v.08l.39 4M149.7 76.63c0 .91-.07 1.81-.07 2.71a.94.94 0 0 0 .92 1 1 1 0 0 0 .94-.92c0-.9 0-1.8.07-2.7a1 1 0 0 0-.93-1 1 1 0 0 0-.94.92m10.52-20.57c-.81.54-1.61 1.09-2.39 1.67a15.73 15.73 0 0 0-2.2 2 23.88 23.88 0 0 0-3.35 4.92 20.82 20.82 0 0 0-1.09 2.78c-.24.8-.48 1.61-.7 2.42a1.07 1.07 0 0 0 .82 1.28h.21a1.07 1.07 0 0 0 1-.71 39.92 39.92 0 0 1 2-5.27 24.49 24.49 0 0 1 1.59-2.58c.38-.53.79-1 1.22-1.54a14.39 14.39 0 0 1 1.07-1c1-.77 2-1.45 3-2.14a1.1 1.1 0 1 0-1.26-1.8m83.63-16.66h1.66c.74 0 1.46.11 2.19.18 1.32.21 2.65.39 4 .7.41.11.81.24 1.21.38.24.1.46.21.69.33s.45.28.67.44.46.38.68.59.56.61.82.93.61.87.88 1.32.45.87.65 1.31.27.73.38 1.11c.36 1.39.57 2.83.84 4.24a1.93 1.93 0 0 0 1.91 1.54 1.72 1.72 0 0 0 .39 0 1.93 1.93 0 0 0 1.22-.82 2 2 0 0 0 .28-1.48 19.38 19.38 0 0 0-1.93-6.84 12.64 12.64 0 0 0-4.2-4.49 8.42 8.42 0 0 0-2.69-1 20.22 20.22 0 0 0-2.68-.33l-2.57-.21c-1.52-.12-3-.13-4.57-.14h-5.33a1.18 1.18 0 1 0-.18 2.35h5.34Zm-.19 4.56a1.72 1.72 0 0 0 .94 2.21 12.63 12.63 0 0 1 1.37.55 2.4 2.4 0 0 1 .27.16c.24.17.47.35.68.53a10.7 10.7 0 0 1 .83.82A38.73 38.73 0 0 1 250 51.5a1.44 1.44 0 0 0 1.2.59 1.51 1.51 0 0 0 1.34-2.28c-.57-.93-1.14-1.86-1.78-2.74a13 13 0 0 0-2.25-2.49 10 10 0 0 0-2.72-1.58 1.76 1.76 0 0 0-2.22.94m-19.08-6.12A2 2 0 0 0 226 40.2a1.64 1.64 0 0 0 .38 0 1.51 1.51 0 0 0 .3 0 21 21 0 0 0 3.17-.12 1.79 1.79 0 1 0-.07-3.58h-.06c-.7 0-1.4.09-2.09.09h-.27a1.91 1.91 0 0 0-.93-.25 2 2 0 0 0-2 1.51m-18.59-6.05c.42 0 .83.05 1.25.09s1 .2 1.48.33l1.14.42a21.52 21.52 0 0 1 2.13 1.11c.33.22.65.45 1 .7.85.75 1.62 1.59 2.48 2.34a8.38 8.38 0 0 0 1.47 1 15.24 15.24 0 0 0 1.74.8 1.13 1.13 0 0 0 .45.09 1.37 1.37 0 0 0 1.26-.89 1.33 1.33 0 0 0-.63-1.64c-.55-.25-1.09-.5-1.62-.79-.27-.18-.52-.36-.78-.55-.52-.45-1-.94-1.5-1.41a13.83 13.83 0 0 0-3-2.23 18.21 18.21 0 0 0-3.28-1.38 11.45 11.45 0 0 0-3.68-.46 31.07 31.07 0 0 0-3.6.33 48.91 48.91 0 0 0-7.06 1.47 17.21 17.21 0 0 0-3.17 1.31c-.48.27-.94.57-1.4.87a8.5 8.5 0 0 0-1.31 1 .94.94 0 1 0 1.42 1.23 3.81 3.81 0 0 0 .24-.32l.13-.11c.28-.19.57-.37.86-.55s.71-.38 1.08-.54a21.16 21.16 0 0 1 2.16-.74c1.14-.29 2.29-.52 3.45-.72s2.3-.39 3.46-.54c.63-.07 1.25-.15 1.88-.18s1.12 0 1.69 0ZM186.15 86.24Z"/><path d="m267.81 78.11.05.14a1.21 1.21 0 0 0-.05-.14M254.79 41.93l.1.09-.1-.09M247.74 39.61"/></svg>