<svg height="536" xmlns="http://www.w3.org/2000/svg" data-name="Layer 5" viewBox="0 0 720 480"><path fill="#cad6f4" d="m219.38,365.75h128.74c3.22-8.34,4.86-17.44,4.56-26.94-1.18-38.07-33-67.98-71.07-66.8-38.07,1.18-67.98,33-66.8,71.07.25,7.99,1.86,15.61,4.58,22.66Z"/><path fill="#fff" d="m354.1,139.09s-15.85-17.81-36.33-18.79c-20.48-.98-30.39,11.81-30.39,11.81l-13.1,89.41,38.76,5.01,4.46-23.88c4.18.24,18.27,3.33,22.29.57s7.05-15.66,7.05-15.66l8.09-1.92-2.82-21.08c2.36-7.1,2.92-14.27,1.99-25.46Z"/><path fill="none" stroke="#232323" stroke-linecap="round" stroke-linejoin="round" stroke-width="2" d="m354.1,139.09s-15.85-17.81-36.33-18.79c-20.48-.98-30.39,11.81-30.39,11.81l-13.1,89.41,38.76,5.01,4.46-23.88c4.18.24,18.27,3.33,22.29.57s7.05-15.66,7.05-15.66l8.09-1.92-2.82-21.08c2.36-7.1,2.92-14.27,1.99-25.46Z"/><path fill="#232323" d="m365.6,118.52s-3.21,6.3-4.37,7.61c-2.77-2.27-7.55-7.14-16.34-8.84-8.79-1.7-12.14,1.82-14.26,1.01-2.11-.81-13.28-5.71-21.03-6.29-7.74-.58-13.95-.45-22.38,6.81-8.42,7.26-7.46,23.81-7.46,23.81-5.5,9.47-5.05,22.08.94,34.16l2.73-3.25c-.56-20.98,10.27-29.18,24.29-31.9l21.11-.25c9.33,9.6,22.19,11.05,30.42,6.08,8.23-4.97,13.47-16.9,6.33-28.97Z"/><path fill="#232323" d="m325.29,132.08l-8.12,32.27-6.94,1.55s2.74-13.81-6.55-14.36c-9.29-.55-16.26,9.09-9.31,23.9-8.7,2.77-11.65,3.48-13.8,3.13l3.22-39.99,41.49-6.5Z"/><polygon fill="#232323" points="318.47 151.82 339.07 138.67 318.15 129.85 313.15 141.75 318.47 151.82"/><path fill="#232323" d="m317.17,164.35s2.92,12.49,6.28,16.11c3.35,3.62,22.95,8.82,22.95,8.82,0,0-2.79,11.31-5.75,13.19-2.97,1.89-9.03,3.37-18.21,1.69-9.18-1.68-13.61-5.63-13.91-9.42-.29-3.79,1.7-28.84,1.7-28.84l6.94-1.55Z"/><polygon fill="#232323" points="344.75 164.5 316.53 158.84 317.12 155.77 345.33 161.43 344.75 164.5"/><rect width="3.72" height="18.11" x="344.88" y="155" fill="#232323" rx="1.86" ry="1.86" transform="rotate(9.24 346.755 164.044)"/><path fill="#cad6f4" d="m319.14,213.74h.05s.16-1.81.16-1.81c.11-1.26-.93-2.38-2.33-2.51l-21.39-1.91-21.39-1.91c-1.4-.12-2.63.8-2.74,2.06l-.16,1.81h.05s-35.23,5.82-35.23,5.82c-7.43,1.23-13.04,7.38-13.58,14.89l-7.55,104.64,137.4,12.25,17.63-116.99-50.93-16.35Z"/><polygon fill="#cad6f4" points="353.51 365.75 352.68 338.82 214.81 343.09 215.51 365.75 353.51 365.75"/><line x1="161.49" x2="464.29" y1="365.75" y2="365.75" fill="none" stroke="#232323" stroke-linecap="round" stroke-linejoin="round" stroke-width="2"/><circle cx="380.33" cy="357.74" r="21.01" fill="#fff"/><circle cx="366.78" cy="265.51" r="22.43" fill="#fff"/><polyline fill="#fff" points="388.96 262.25 401.11 354.68 359.54 360.79 344.59 268.77 388.96 262.25"/><line x1="359.54" x2="344.59" y1="360.79" y2="268.77" fill="none" stroke="#232323" stroke-linecap="round" stroke-linejoin="round" stroke-width="2"/><line x1="388.96" x2="401.11" y1="262.25" y2="354.68" fill="none" stroke="#232323" stroke-linecap="round" stroke-linejoin="round" stroke-width="2"/><circle cx="285.28" cy="365.32" r="14.58" fill="#fff"/><polygon fill="#fff" points="284.13 350.78 286.44 379.86 382.02 378.7 378.69 336.82 284.13 350.78"/><line x1="286.44" x2="382.02" y1="379.86" y2="378.7" fill="none" stroke="#232323" stroke-linecap="round" stroke-linejoin="round" stroke-width="2"/><line x1="378.69" x2="284.13" y1="336.82" y2="350.78" fill="none" stroke="#232323" stroke-linecap="round" stroke-linejoin="round" stroke-width="2"/><path fill="none" stroke="#232323" stroke-linecap="round" stroke-linejoin="round" stroke-width="2" d="m382.02,378.7c11.57-.92,20.2-11.04,19.28-22.61"/><rect width="53.44" height="72.82" x="342.48" y="255.22" fill="#cad6f4" transform="rotate(169.82 369.195 291.626)"/><circle cx="362.76" cy="255.8" r="26.72" fill="#cad6f4"/><circle cx="311.6" cy="325.71" r="21.01" fill="#fff"/><circle cx="242.56" cy="248.98" r="22.43" fill="#fff"/><polyline fill="#fff" points="225.89 263.98 295.98 339.77 327.22 311.66 259.23 233.98 225.89 263.98"/><line x1="327.22" x2="259.23" y1="311.66" y2="233.98" fill="none" stroke="#232323" stroke-linecap="round" stroke-linejoin="round" stroke-width="2"/><line x1="225.89" x2="295.98" y1="263.98" y2="339.77" fill="none" stroke="#232323" stroke-linecap="round" stroke-linejoin="round" stroke-width="2"/><path fill="#fff" d="m343.23,236.96l3.66-14.34-3.7-5.62-12.87-6.24s-2.08-1.76.03-4.2c2.11-2.44,6.34-3.01,9.42-2.29,3.08.72,13.16,5.52,13.16,5.52l9.09-17.44,3.47-4.91s3.21-1.67,5.08-.32c1.86,1.35,2.59,4.2,1.69,5.87-.91,1.67-2.31,5.87-2.31,5.87,0,0,2.74-6,6.93-3.06,4.19,2.93,2.28,5.02,2.28,5.02,0,0,3.03.37,4.23,1.6,1.21,1.23,1.47,4.56,1.47,4.56,0,0,2.6.78,3.55,2.05.96,1.27.86,3.79.86,3.79,0,0-3.7,7.07-6.29,10.75-2.59,3.67-9.01,10.45-9.01,10.45l-3.06,9.33-27.68-6.38Z"/><circle cx="359.71" cy="231.93" r="14.58" fill="#fff"/><polygon fill="#fff" points="346.73 225.27 372.68 238.59 330.29 335.28 292.9 316.09 346.73 225.27"/><line x1="374.12" x2="330.29" y1="234.19" y2="335.28" fill="none" stroke="#232323" stroke-linecap="round" stroke-linejoin="round" stroke-width="2"/><line x1="297.46" x2="346.73" y1="310.18" y2="225.27" fill="none" stroke="#232323" stroke-linecap="round" stroke-linejoin="round" stroke-width="2"/><path fill="none" stroke="#232323" stroke-linecap="round" stroke-linejoin="round" stroke-width="2" d="m295.98,339.77c7.76,8.63,21.04,9.33,29.67,1.57,2.39-2.15,4.17-4.72,5.33-7.5"/><line x1="375.78" x2="371.37" y1="204.45" y2="209.85" fill="none" stroke="#232323" stroke-linecap="round" stroke-linejoin="round" stroke-width="2"/><line x1="381.24" x2="377.6" y1="210.1" y2="214.55" fill="none" stroke="#232323" stroke-linecap="round" stroke-linejoin="round" stroke-width="2"/><path fill="none" stroke="#232323" stroke-linecap="round" stroke-linejoin="round" stroke-width="2" d="m346.73,225.27c-.05-3.84-3.06-8.19-3.98-8.7-1.94-1.08-6.1-2.89-11.09-5.09-5-2.2-1.17-8.86,6.46-7.42,6.45,1.22,12.98,4.65,14.84,5.68l4.72-9.89,6.19-10.61s2.24-4.14,5.72-2.51c3.48,1.62,3.45,4.15,2.64,6.31-.57,1.52-3.29,6.81-4.84,9.77,1.79-2.49,4.61-6.4,5.21-7.16.9-1.14,3.14-.95,4.96.53,1.82,1.49,2.21,3.86,1.42,4.91-.07.1-.19.25-.35.44.96-.78,3.01-.62,4.47.61,1.59,1.34,2.07,3.69,1.46,4.46-.07.09-.28.36-.6.75,1-.48,2.53.06,3.64.86,1.34.97,2.32,3.32,1.43,4.48-3.58,8.22-8.39,15.3-14.91,21.49"/><circle cx="240.92" cy="244.6" r="26.72" fill="#cad6f4"/><rect width="53.44" height="74.21" x="239.17" y="234.9" fill="#cad6f4" transform="rotate(-42.32 265.914 272.013)"/><path fill="#fff" d="m283.74,350.74l-23.6-6.41-17.33,1.64s-10.75,8.72-10.95,9.69.76,3.4.76,3.4c0,0-3,4.51-1.54,6.15,1.47,1.64,3.95,1.79,3.95,1.79,0,0-1.08,2.57,1.14,4.41,2.22,1.85,5.52,1.38,5.52,1.38,0,0-.91,3.4.37,4.52s4.29,1.47,4.29,1.47l9.98-4.37s3.06.06,5.76.37,12.3,3.02,12.3,3.02l7.68,1.76,1.66-28.82Z"/><g><path fill="none" stroke="#232323" stroke-linecap="round" stroke-linejoin="round" stroke-width="2" d="m286.44,379.86s-3.94.23-10.48-1.63c-6.55-1.86-10.97-3.02-12-3.43-1.03-.4-6.57-.91-7.88-.31,0,0-7.84,3.47-9.28,3.96-1.45.49-3.63.44-4.64-1-1.2-2.29-.93-4.31,1.52-5.79,0,0,8.77-5.23,10.67-5.77s8.01-1.12,8.01-1.12"/><path fill="none" stroke="#232323" stroke-linecap="round" stroke-linejoin="round" stroke-width="2" d="m232.82,359.38c-.55-.86-1.35-2.36-1.06-3.49.43-1.69,10.81-9.89,10.81-9.89,0,0,16.33-2.31,18.43-1.51,2.1.8,22.74,6.33,22.74,6.33l10.79-1.57"/><path fill="none" stroke="#232323" stroke-linecap="round" stroke-linejoin="round" stroke-width="2" d="m257.68,356.58c-3.75.21-7.6.49-8.51.74-1.9.54-11.93,7.77-11.93,7.77-2.45,1.48-2.72,3.49-1.52,5.79,1.93,2.46,3.6,2.64,6.78,1.69"/><path fill="none" stroke="#232323" stroke-linecap="round" stroke-linejoin="round" stroke-width="2" d="m252.12,349.82c-3.17.35-6.36.74-7.24.99-1.9.54-12.14,8.89-12.14,8.89-2.45,1.48-2.72,3.49-1.52,5.79,1.18,1.25,2.73,1.45,4.37,1.11"/></g><path fill="#cad6f4" d="m220.13,266.18c-11.98-17.2-8.68-47.74,12.23-50.31s22.61,24.05,20.83,25.28c-1.78,1.22-33.05,25.04-33.05,25.04Z"/><polyline fill="none" stroke="#232323" stroke-linecap="round" stroke-linejoin="round" stroke-width="2" points="276.55 244.6 310.63 281.44 271.12 317.43 242.56 286.07"/><path fill="none" stroke="#232323" stroke-miterlimit="10" stroke-width="2" d="m434.62,315.58v5.61c0,.78-.3,1.53-.83,2.1l-9.11,9.78c-.53.57-.83,1.32-.83,2.1v42.87c0,.74.6,1.34,1.34,1.34h28.83c.74,0,1.34-.6,1.34-1.34v-42.87c0-.78-.3-1.53-.83-2.1l-9.11-9.78c-.53-.57-.83-1.32-.83-2.1v-5.61c0-.43-.35-.79-.79-.79h-8.4c-.43,0-.79.35-.79.79Z"/><g><path fill="#0096e0" d="m452.07,195.05c1.98-11.67,5-20.72,9.07-27.16,4.07-6.44,11.08-13.08,21.03-19.92,9.95-6.84,16.36-11.82,19.24-14.94,4.41-4.74,7.14-10.22,8.2-16.43,1.4-8.22.42-14.85-2.92-19.87-3.34-5.02-8.95-8.2-16.84-9.54-7.54-1.28-13.96-.19-19.28,3.26-5.32,3.45-8.59,8.81-9.82,16.05l-31.94-5.42c2.81-15.5,10.17-26.88,22.09-34.15,11.92-7.27,26.42-9.46,43.51-6.56,17.61,2.99,30.59,9.79,38.93,20.41,8.34,10.62,11.15,23.96,8.42,40.01-2.43,14.3-11.48,27.24-27.15,38.84l-18.87,13.18c-6.9,5.6-11.51,14.7-13.83,27.3l-29.84-5.06Z"/><path fill="#232323" d="m461.52,244.1c-1,0-2-.09-3-.27-4.67-.83-8.75-3.51-11.49-7.54-2.74-4.04-3.81-8.95-3.02-13.82.79-4.88,3.35-9.14,7.21-12.01,3.86-2.87,8.56-3.99,13.22-3.16,4.67.83,8.75,3.51,11.49,7.54,2.74,4.04,3.81,8.95,3.02,13.82h0c-.79,4.88-3.35,9.14-7.21,12.01-3.03,2.25-6.58,3.42-10.22,3.42Zm-.07-35.7c-3.37,0-6.66,1.09-9.47,3.17-3.58,2.65-5.95,6.6-6.68,11.12-.73,4.52.26,9.07,2.8,12.81,2.54,3.74,6.32,6.22,10.64,6.99,4.32.77,8.67-.27,12.25-2.93,3.58-2.65,5.95-6.6,6.68-11.12h0c.73-4.52-.26-9.07-2.8-12.81-2.54-3.74-6.32-6.22-10.64-6.99-.93-.16-1.86-.25-2.78-.25Z"/></g><path fill="#232323" d="m455.36,378.7h-31.5v-24.02c15.18-2.83,18.14,3.65,31.5,0v24.02Z"/></svg>