<svg xmlns="http://www.w3.org/2000/svg" fill-rule="evenodd" stroke-linejoin="round" stroke-miterlimit="2" clip-rule="evenodd" viewBox="0 0 64 64"><g transform="translate(-1688 -8)"><path fill="#fdcf41" d="M66.767,21.4C66.767,18.491 65.464,15.702 63.145,13.645C60.825,11.589 57.68,10.433 54.4,10.433L22.6,10.433C19.32,10.433 16.175,11.589 13.855,13.645C11.536,15.702 10.233,18.491 10.233,21.4L10.233,49.6C10.233,52.509 11.536,55.298 13.855,57.355C16.175,59.411 19.32,60.567 22.6,60.567L54.4,60.567C57.68,60.567 60.825,59.411 63.145,57.355C65.464,55.298 66.767,52.509 66.767,49.6L66.767,21.4Z" transform="matrix(1.13208 0 0 1.2766 1676.42 -5.32)"/><path fill="#f4f4f4" d="M62.162,23C62.162,21.674 61.593,20.402 60.579,19.464C59.565,18.527 58.19,18 56.757,18C49.25,18 30.75,18 23.243,18C21.81,18 20.435,18.527 19.421,19.464C18.407,20.402 17.838,21.674 17.838,23L17.838,57C17.838,58.326 18.407,59.598 19.421,60.536C20.435,61.473 21.81,62 23.243,62C30.75,62 49.25,62 56.757,62C58.19,62 59.565,61.473 60.579,60.536C61.593,59.598 62.162,58.326 62.162,57L62.162,23Z" transform="matrix(.925 0 0 1 1684.5 0)"/><path fill="#e6b10e" d="M20,27L26,27C27.104,27 28,26.104 28,25C28,23.896 27.104,23 26,23L20,23C18.896,23 18,23.896 18,25C18,26.104 18.896,27 20,27Z" transform="translate(1680 11)"/><path fill="#e6b10e" d="M20,27L26,27C27.104,27 28,26.104 28,25C28,23.896 27.104,23 26,23L20,23C18.896,23 18,23.896 18,25C18,26.104 18.896,27 20,27Z" transform="translate(1680 19)"/><path fill="#e6b10e" d="M20,27L26,27C27.104,27 28,26.104 28,25C28,23.896 27.104,23 26,23L20,23C18.896,23 18,23.896 18,25C18,26.104 18.896,27 20,27Z" transform="translate(1680 27)"/><path fill="#e6b10e" d="M20,27L26,27C27.104,27 28,26.104 28,25C28,23.896 27.104,23 26,23L20,23C18.896,23 18,23.896 18,25C18,26.104 18.896,27 20,27Z" transform="translate(1680 3)"/><path fill="#c7c7c7" d="M37,30L52,30C53.183,30 54.143,29.104 54.143,28C54.143,26.896 53.183,26 52,26L37,26C35.817,26 34.857,26.896 34.857,28C34.857,29.104 35.817,30 37,30Z" transform="matrix(.93333 0 0 1 1681.47 4)"/><path fill="#c7c7c7" d="M37,30L52,30C53.183,30 54.143,29.104 54.143,28C54.143,26.896 53.183,26 52,26L37,26C35.817,26 34.857,26.896 34.857,28C34.857,29.104 35.817,30 37,30Z" transform="matrix(.93333 0 0 1 1681.47 12)"/><path fill="#c7c7c7" d="M37,30L52,30C53.183,30 54.143,29.104 54.143,28C54.143,26.896 53.183,26 52,26L37,26C35.817,26 34.857,26.896 34.857,28C34.857,29.104 35.817,30 37,30Z" transform="matrix(.93333 0 0 1 1681.47 20)"/></g></svg>