<svg xmlns="http://www.w3.org/2000/svg" viewBox="0 0 740.833 740.833"><g transform="translate(-1042.527 124.878)"><path fill="#f5b8bb" d="m 1286.1658,56.90358 c -0.9174,-1.931362 -2.7524,-5.794651 -5.4567,-8.257838 -2.7042,-2.463186 -6.2776,-3.525551 -9.3204,-2.946151 -3.0428,0.579401 -5.554,2.800786 -7.3043,5.405855 -1.7503,2.605068 -2.7396,5.593192 -2.993,9.867295 -0.2535,4.274103 0.2288,9.833343 1.0978,13.965362 0.8691,4.132019 2.1246,6.83634 3.724,9.065978 1.5994,2.229638 3.5423,3.984684 5.892,4.723465 2.3496,0.738781 5.1061,0.461756 6.5732,-0.180223 1.4672,-0.641979 1.6451,-1.648957 1.9277,-2.152799 0.2825,-0.503842 0.6687,-0.503842 1.5097,1.54428 0.841,2.048122 2.1369,6.143397 5.6841,11.848715 3.5472,5.705321 9.345,13.019971 17.2469,20.723231 7.9019,7.70325 17.9068,15.79429 30.7487,20.97259 12.842,5.17829 28.5195,7.44367 42.384,5.73133 13.8646,-1.71233 25.915,-7.4021 34.7627,-14.33879 8.8478,-6.93669 14.4923,-15.11978 19.2181,-23.77451 4.7259,-8.65473 8.5326,-17.780202 10.9673,-27.945066 2.4347,-10.164863 3.4971,-21.368195 3.7869,-31.316575 0.2899,-9.948379 -0.193,-18.640618 -0.7184,-25.634076 -0.5254,-6.993457 -1.0934,-12.287381 -1.4234,-14.8926024 -0.3301,-2.6052217 -0.4229,-2.5203483 -0.6062,-2.3539043 -0.1832,0.166444 -0.4565,0.4141021 -0.7876,0.7240029 -0.3311,0.3099008 -0.7203,0.6822887 -1.3097,1.1990751 -0.5895,0.5167864 -1.3796,1.1781537 -2.3454,1.9291367 -0.9658,0.750984 -2.1084,1.592361 -3.5277,2.538458 -1.4192,0.946097 -3.1153,1.997082 -4.395,2.753043 -1.2796,0.755961 -2.1422,1.216574 -3.3789,1.821734 -1.2368,0.60516 -2.8478,1.354828 -4.4223,2.029363 -1.5744,0.674535 -3.1122,1.273849 -4.8999,1.895621 -1.7878,0.621773 -3.8252,1.265837 -5.483,1.751062 -1.6578,0.485225 -2.9356,0.811503 -4.5442,1.170623 -1.6086,0.359119 -3.5478,0.750993 -5.7381,1.112261 -2.1902,0.361269 -4.6315,0.691914 -6.9396,0.933771 -2.3081,0.241858 -4.483,0.394892 -6.4032,0.487292 -1.9202,0.0924 -3.5872,0.124175 -4.9105,0.13258 -1.3233,0.0084 -2.3037,-0.0066 -4.2828,-0.107291 -1.9792,-0.100728 -4.9565,-0.287222 -7.1992,-0.462795 -2.2427,-0.175572 -3.7507,-0.340232 -5.6078,-0.578977 -1.857,-0.238745 -4.0628,-0.551559 -6.1334,-0.876192 -2.0705,-0.324632 -4.0059,-0.661127 -6.1052,-1.058249 -2.0992,-0.397123 -4.3621,-0.854845 -6.3406,-1.275229 -1.9785,-0.420385 -3.6722,-0.80336 -5.9522,-1.353335 -2.2801,-0.549975 -5.1463,-1.266909 -7.4852,-1.87142 -2.3388,-0.604512 -4.1464,-1.095553 -5.9277,-1.591622 -1.7813,-0.496068 -3.6157,-1.019849 -5.7253,-1.636613 -2.1096,-0.616763 -4.5348,-1.338047 -6.7657,-2.006991 -2.231,-0.668945 -4.2675,-1.285509 -6.2457,-1.888404 -1.9782,-0.602895 -3.8985,-1.192239 -5.9988,-1.853612 -2.1004,-0.661374 -4.3808,-1.3947818 -5.7363,-1.8341798 -1.3556,-0.4393981 -1.7852,-0.5844419 -2.1619,-0.6832006 -0.3767,-0.098759 -0.6902,-0.1493653 -0.9352,-0.1290269 -0.2449,0.020338 -0.4147,0.1118633 -0.5245,0.2589532 -0.1099,0.1470899 -0.1588,0.3488164 -0.1474,0.7072468 0.011,0.3584303 0.083,0.8728163 0.1577,1.3241473 0.075,0.451331 0.1525,0.838706 0.2397,1.283613 0.087,0.444907 0.184,0.947611 0.3012,1.616531 0.1171,0.66892 0.2548,1.504757 0.3696,2.256363 0.1147,0.751606 0.1441,0.965271 0.2142,1.528603 0.07,0.563333 0.1497,1.249957 0.2404,2.251814 0.091,1.001857 0.1923,2.319036 0.2583,3.4977 0.066,1.178663 0.096,2.21875 0.1002,3.34576 0,1.12701 -0.019,2.345078 -0.092,3.695942 -0.073,1.350864 -0.192,2.788941 -0.3232,4.006838 -0.1311,1.217898 -0.2356,1.939753 -0.4986,3.281801 -0.2629,1.342049 -0.666,3.178271 -1.0209,4.632298 -0.355,1.454027 -0.6624,2.527983 -1.0422,3.745606 -0.3798,1.217622 -0.8323,2.580038 -1.2458,3.76493 -0.4135,1.184892 -0.788,2.19226 -1.2243,3.308905 -0.4363,1.116646 -0.9344,2.342538 -1.2668,3.148549 -0.3324,0.80601 -0.4989,1.191737 -0.7328,1.705174 -0.2338,0.513436 -0.535,1.154298 -0.7837,1.630191 -0.2488,0.475892 -0.4405,0.779386 -0.6198,0.951687 -0.1792,0.172301 -0.3454,0.210184 -0.5195,0.105804 -0.1742,-0.104379 -0.3572,-0.35218 -0.5148,-0.61645 -0.1576,-0.26427 -0.2897,-0.545409 -0.356,-0.686289 -0.066,-0.14088 -0.064,-0.140807 -0.9819,-2.072169 z"/><path fill="#f6a0a8" d="m 1293.2329,48.78949 c 0.2091,-0.627409 0.6272,-1.882374 1.1825,-3.9062 0.5553,-2.023826 1.2477,-4.816409 1.6175,-6.295101 0.3698,-1.478691 0.4172,-1.643765 0.5551,-2.858514 0.1379,-1.214749 0.3664,-3.479359 0.4961,-5.227673 0.1298,-1.748315 0.1608,-2.980271 0.1162,-4.736853 -0.045,-1.756583 -0.165,-4.037691 -0.3634,-6.184411 -0.1985,-2.146721 -0.4751,-4.158937 -0.664,-5.434481 -0.1888,-1.275544 -0.2899,-1.814383 -0.4071,-2.518449 -0.1172,-0.704066 -0.2506,-1.573292 -0.2926,-2.1257764 -0.042,-0.5524843 0.01,-0.7885368 0.064,-0.9513241 0.056,-0.1627874 0.1195,-0.2530314 0.2421,-0.2964898 0.1226,-0.043458 0.3097,-0.040143 0.5123,-0.018674 0.2025,0.021468 0.4664,0.068813 0.9504,0.2044388 0.484,0.1356262 1.2096,0.3633688 3.5416,1.0918778 2.3321,0.7285092 6.2705,1.9577512 9.2878,2.8871112 3.0173,0.92936 5.1135,1.558836 8.2577,2.480846 3.1442,0.922009 7.3363,2.136524 10.899,3.128582 3.5627,0.992057 6.497,1.76191 9.3217,2.465017 2.8246,0.703108 7.2399,1.738083 12.1404,2.690899 4.9005,0.952816 11.1358,2.022678 16.2127,2.715886 5.0768,0.693208 9.7551,1.071172 14.5215,1.159351 4.7663,0.08818 10.0007,-0.08268 14.7431,-0.531337 4.7423,-0.448656 5.6969,-0.611803 9.4647,-1.255471 3.7677,-0.643667 3.7667,-0.64344 3.757,-0.633853 -0.01,0.0096 -0.023,0.02696 -0.065,0.09768 -0.042,0.07072 -0.1117,0.193258 -0.9544,0.740857 -0.8426,0.547599 -2.4579,1.51992 -5.526,2.489442 -3.0682,0.969521 -7.5889,1.936118 -13.6145,2.698469 -6.0257,0.762351 -13.556,1.320383 -21.4504,0.937959 -7.8944,-0.382423 -16.1524,-1.705298 -24.0999,-3.292809 -7.9476,-1.587512 -15.584,-3.439548 -21.8053,-5.187856 -6.2213,-1.748308 -10.834,-3.3267 -13.8415,-4.36546 -3.0076,-1.03876 -3.9451,-1.377389 -4.4115,-1.377335 -0.4663,5.3e-5 -0.4219,0.352972 -0.3943,1.572229 0.027,1.219256 0.038,3.30436 -0.1119,5.824402 -0.1501,2.520042 -0.4609,5.474426 -1.0159,8.032071 -0.555,2.557646 -1.3542,4.718339 -2.2644,7.011434 -0.9102,2.293095 -1.9314,4.718399 -2.7638,6.184535 -0.8324,1.466136 -1.4762,1.97325 -2.1141,2.379608 -0.6379,0.406358 -1.2698,0.711976 -1.5909,0.867355 -0.3211,0.15538 -0.3311,0.16045 -0.3361,0.162954 -0,0.0025 -0.01,0.0025 0.2035,-0.624935 z"/><path fill="#263762" d="m 1258.3441,-27.890986 c 0,0 -17.3682,-2.715466 -17.5018,1.750282 -0.022,0.717135 2.1499,4.561857 3.2312,4.638274 1.4417,0.101852 14.2706,-6.388403 14.2706,-6.388403 z"/><path fill="#263762" d="m 1260.728,-28.177056 c 0,0 -4.2508,-19.199161 -12.3955,-16.593383 -1.3078,0.418646 -7.1139,4.96988 -6.6818,6.108203 0.5762,1.517983 19.0771,10.485245 19.0771,10.485245 z"/><path fill="none" stroke="#f6a0a8" stroke-linecap="round" stroke-width="1.5" d="m 1276.3054,55.439444 c 0.9929,1.836488 1.9858,3.672933 2.1679,6.552162 0.182,2.879229 -0.4465,6.800037 -1.5868,8.676795 -1.1402,1.876758 -2.7913,1.710006 -3.6636,0.482915 -0.8723,-1.227091 -0.9665,-3.51506 -0.3655,-5.081819 0.601,-1.566758 1.8956,-2.410551 3.202,-1.090918 1.3064,1.319632 2.6218,4.804001 3.0794,7.537896 0.4577,2.733895 0.058,4.716902 -0.3423,6.69954"/><path fill="#263762" d="m 1357.1102,113.62741 c 9.9291,-0.59907 29.179,-1.30922 39.0714,-1.53799 9.8924,-0.22878 10.4277,0.0235 10.7205,0.47852 0.2928,0.45501 0.3436,1.1126 -0.1233,2.4199 -0.4668,1.3073 -1.4512,3.26451 -2.8068,5.25489 -1.3555,1.99038 -3.0823,4.01391 -5.2672,5.88483 -2.1849,1.87093 -4.828,3.58919 -7.9403,4.87425 -3.1123,1.28507 -6.6937,2.1369 -10.1736,2.63048 -3.4799,0.49358 -6.858,0.62881 -10.3266,0.0377 -3.4685,-0.59111 -7.0273,-1.90867 -9.7382,-3.1824 -2.7109,-1.27372 -4.5737,-2.50366 -6.3338,-3.96651 -1.7601,-1.46286 -3.4173,-3.15857 -4.7075,-4.74802 -1.2902,-1.58945 -2.2133,-3.07269 -2.739,-4.15003 -0.5257,-1.07734 -0.6537,-1.74878 -0.4134,-2.32867 0.2402,-0.5799 0.8488,-1.06789 10.7778,-1.66696 z"/><path fill="#f6a0a8" d="m 1361.0737,130.71829 c 0.5476,0.2306 1.6423,0.69166 2.8573,1.13419 1.215,0.44253 2.5499,0.86645 3.6256,1.1663 1.0757,0.29985 1.8919,0.47562 3.0651,0.62847 1.1732,0.15285 2.7037,0.28287 3.9782,0.32747 1.2745,0.0446 2.2935,0.004 3.2494,-0.0673 0.956,-0.0711 1.8489,-0.17256 3.1755,-0.39542 1.3267,-0.22285 3.087,-0.56708 4.4672,-0.88702 1.3801,-0.31994 2.3772,-0.61473 3.3215,-0.93662 0.9443,-0.32189 1.8346,-0.67049 2.5891,-1.02093 0.7546,-0.35043 1.3732,-0.70255 1.9154,-0.98684 0.5421,-0.28428 1.0072,-0.50039 1.2512,-1.1398 0.244,-0.6394 0.2666,-1.70157 -0.8074,-2.80117 -1.0741,-1.0996 -3.2448,-2.23579 -5.8447,-2.62971 -2.6,-0.39392 -5.6278,-0.0452 -7.5612,0.39087 -1.9333,0.43604 -2.7701,0.9589 -3.7192,0.95015 -0.949,-0.009 -2.0098,-0.54943 -3.8841,-0.91151 -1.8743,-0.36208 -4.5616,-0.54506 -7.1364,-0.0899 -2.5748,0.45517 -5.039,1.54905 -6.4651,2.50396 -1.426,0.9549 -1.9397,2.03453 -1.6671,2.53044 0.2726,0.49592 1.5828,1.20892 2.3132,1.60635 0.7303,0.39744 0.729,0.39738 1.2765,0.62799 z"/><path fill="#263762" d="m 1298.3463,8.8607689 c 1.3613,0.4532832 4.0831,1.3595981 18.601,5.7186061 14.518,4.359007 40.8303,12.170169 64.408,12.825062 23.5777,0.654893 44.4176,-5.846216 58.1031,-16.694052 13.6855,-10.84783533 20.215,-26.041222 24.3291,-43.285556 4.114,-17.244334 5.812,-36.537774 6.5055,-45.359111 0.6936,-8.821338 0.3827,-7.169495 -1.0823,-5.377886 -1.465,1.791609 -4.0839,3.72316 -7.6076,5.519546 -3.5237,1.796387 -7.952,3.45742 -13.456,3.670595 -5.5041,0.213175 -12.0836,-1.02179 -20.535,-3.474424 -8.4514,-2.452635 -18.7734,-6.122669 -32.4856,-9.503241 -13.7123,-3.380573 -30.813,-6.471137 -49.3787,-4.153167 -18.5657,2.31797 -38.5941,10.044613 -52.4246,19.069196 -13.8305,9.024584 -21.4624,19.346421 -24.8443,27.169972 -3.3819,7.823551 -2.5141,13.14812 -2.8506,16.631257 -0.3365,3.483137 -1.877,5.124851 -3.8711,6.4736 -1.994,1.348749 -4.4417,2.404364 -7.6871,5.952314 -3.2455,3.547951 -7.2884,9.5876478 -9.5862,17.2689104 -2.2977,7.6812627 -2.85,17.0023726 -2.1409,25.7272846 0.7091,8.724913 2.6792,16.850706 5.1313,23.507673 2.4522,6.656966 5.3846,11.841646 7.8643,15.621965 2.4797,3.780318 4.5149,6.164614 5.5509,7.38204 1.036,1.217426 1.0971,1.296384 1.0021,0.548318 -0.095,-0.748065 -0.343,-2.301989 -0.5211,-3.693144 -0.1781,-1.391156 -0.2842,-2.604526 -0.3537,-3.696159 -0.07,-1.091633 -0.1017,-2.05257 -0.1286,-3.044764 -0.027,-0.992195 -0.048,-2.011779 0.033,-3.097973 0.081,-1.086194 0.2633,-2.237135 0.479,-3.250586 0.2156,-1.01345 0.4639,-1.887488 0.8927,-2.900921 0.4289,-1.013433 1.0389,-2.167739 1.7389,-3.244255 0.7,-1.076515 1.49,-2.075354 2.4589,-2.944523 0.9689,-0.869169 2.1173,-1.609252 3.3965,-2.0707 1.2792,-0.461447 2.6885,-0.644106 4.0474,-0.539051 1.3589,0.105055 2.6683,0.497611 3.7743,1.005931 1.1059,0.50832 2.0071,1.131341 3.0708,2.251496 1.0636,1.120155 2.2869,2.734194 3.3123,4.415247 1.0253,1.681054 1.8513,3.42659 2.4501,4.719663 0.5988,1.293073 0.9699,2.13204 1.3438,2.399543 0.374,0.267502 0.7496,-0.03611 2.4823,-4.115485 1.7327,-4.079375 4.8161,-11.920064 6.1056,-19.514596 1.2895,-7.594531 0.7815,-14.929228 0.2127,-19.660638 -0.5688,-4.73141 -1.1982,-6.855379 -1.1586,-7.8731174 0.04,-1.0177386 0.7482,-0.9278805 1.1004,-0.8704724 0.3522,0.057408 0.3488,0.082877 0.3455,0.1081554 0,-0.025279 0.01,-0.050726 0.01,-0.063281 0,-0.012555 0,-0.012555 1.3646,0.4407281 z"/></g><path fill="#a6bbff" d="m 167.77689,521.3387 c -10.53302,-6.35265 -35.00656,-27.44197 -45.59356,-46.59327 -10.58701,-19.15129 -13.70038,-46.32295 -8.71554,-66.03065 4.98484,-19.7077 19.34568,-39.38765 45.97779,-60.29541 26.63212,-20.90777 66.45571,-44.30447 116.73314,-55.25608 50.27742,-10.95161 113.73441,-9.39117 156.04924,0.94996 42.31482,10.34113 73.52547,32.91344 88.49519,54.56259 14.96972,21.64914 19.99404,51.51639 19.28227,70.14107 -0.71177,18.62468 -6.96483,31.65207 -13.84048,39.36789 -6.87565,7.71582 -15.8806,11.17377 -19.71559,20.9494 -3.83499,9.77563 -5.39067,33.46732 -1.30253,60.891 4.08814,27.42368 14.34957,65.17379 14.8056,91.87784 0.45603,26.70406 -9.65766,51.28285 -37.84784,65.77936 -28.19017,14.4965 -89.62866,27.59589 -144.29444,25.45898 -54.66578,-2.13692 -108.9156,-18.15503 -132.2761,-43.70649 -23.3605,-25.55146 -15.71818,-61.16298 -13.36915,-88.41507 2.34904,-27.2521 -1.55427,-55.89255 -3.86591,-61.31501 -2.31164,-5.42247 -9.98907,-2.01346 -20.52209,-8.36611 z"/><path fill="#263762" d="m 372.66458,287.62587 c 0.40284,1.3286 1.20823,3.98491 1.37001,6.92239 0.16177,2.93748 -0.31995,6.15398 -2.48755,9.83404 -2.1676,3.68006 -6.02015,7.82194 -11.89733,10.61743 -5.87717,2.79548 -13.77793,4.24404 -20.94153,4.44406 -7.16359,0.20003 -13.58692,-0.84868 -19.26561,-3.06326 -5.67869,-2.21459 -10.61088,-5.59459 -13.58849,-8.8354 -2.97761,-3.24081 -3.99899,-6.34094 -4.28467,-9.43489 -0.28567,-3.09396 0.16477,-6.17979 0.40383,-7.72532 0.23907,-1.54554 0.26635,-1.55007 0.45578,-1.5762 0.18943,-0.0261 0.54097,-0.0738 1.0159,-0.14449 0.47493,-0.0706 1.07285,-0.16413 2.11301,-0.29307 1.04016,-0.12894 2.52176,-0.29325 4.32085,-0.49719 1.79909,-0.20394 3.91515,-0.44745 6.21335,-0.66243 2.2982,-0.21499 4.77863,-0.40146 6.90136,-0.55323 2.12274,-0.15177 3.8882,-0.26886 5.56973,-0.35472 1.68154,-0.0859 3.27876,-0.14049 5.05282,-0.21998 1.77407,-0.0795 3.7243,-0.1838 5.78469,-0.26013 2.06039,-0.0763 4.23033,-0.12465 6.35454,-0.15485 2.12422,-0.0302 4.20271,-0.0423 6.33367,-0.0367 2.13095,0.006 4.31381,0.0288 6.31183,0.0641 1.99801,0.0353 3.81035,0.0826 5.51645,0.13789 1.70611,0.0553 3.30516,0.11839 4.42734,0.16555 1.12219,0.0472 1.76666,0.0783 2.31646,0.10591 0.54981,0.0276 1.00232,0.0515 1.25429,0.0832 0.25198,0.0317 0.29927,0.0703 0.32282,0.0895 0.0236,0.0192 0.0236,0.0192 0.0236,0.0192 0,0 7e-5,-9e-5 0.4029,1.32851 z"/><path fill="#f5b8bb" d="m 605.63797,345.36472 c -0.0621,0.0702 -0.18604,0.21029 -1.51647,2.11416 -1.33043,1.90386 -3.86723,5.57128 -5.52327,8.29029 -1.65605,2.71902 -2.43131,4.48944 -2.62169,6.0695 -0.19039,1.58005 0.20388,2.96969 2.22255,5.72905 2.01868,2.75935 5.66151,6.8884 9.04163,9.9197 3.38011,3.03131 6.49736,4.96486 9.52198,6.40427 3.02462,1.43941 5.95639,2.38465 8.31532,2.64644 2.35893,0.26179 4.14499,-0.15987 5.79009,-1.35383 1.6451,-1.19395 3.14924,-3.16033 4.87194,-5.63996 1.72271,-2.47963 3.66387,-5.47238 5.28493,-7.57095 1.62106,-2.09858 2.92192,-3.30276 5.38015,-4.48414 2.45824,-1.18137 6.07358,-2.33973 10.02441,-4.14342 3.95083,-1.8037 8.23697,-4.25265 11.75846,-6.43619 3.52149,-2.18353 6.27815,-4.10156 8.96122,-6.20256 2.68306,-2.101 5.29238,-4.38491 7.13376,-6.40232 1.84138,-2.01742 2.91474,-3.76837 3.43672,-5.4271 0.52199,-1.65873 0.49242,-3.22524 0.0654,-4.78966 -0.42698,-1.56443 -1.25149,-3.12652 -2.19549,-4.29482 -0.944,-1.1683 -2.00749,-1.94264 -2.38262,-2.83635 -0.37513,-0.8937 -0.0616,-1.90689 0.19854,-3.07147 0.26013,-1.16457 0.4668,-2.48051 0.19703,-3.82256 -0.26976,-1.34206 -1.01614,-2.71012 -1.7437,-3.77017 -0.72755,-1.06006 -1.43618,-1.81187 -2.17814,-2.38506 -0.74195,-0.5732 -1.51713,-0.96757 -1.8676,-1.27733 -0.35048,-0.30975 -0.27587,-0.53529 0.0179,-1.14972 0.29375,-0.61444 0.80669,-1.61774 1.06457,-2.63855 0.25789,-1.02082 0.26055,-2.05921 -0.0969,-3.20815 -0.3574,-1.14895 -1.07506,-2.40836 -2.1345,-3.65795 -1.05943,-1.2496 -2.4606,-2.48921 -4.12055,-3.93139 -1.65995,-1.44219 -3.57854,-3.08681 -4.11969,-3.96605 -0.54115,-0.87924 0.29535,-0.9929 5.87672,-3.97414 5.58137,-2.98123 15.90735,-8.8299 21.24833,-12.42109 5.34099,-3.59118 5.69673,-4.92497 5.60037,-6.24676 -0.0964,-1.32179 -0.64506,-2.63151 -1.43133,-3.73938 -0.78628,-1.10787 -1.81012,-2.01366 -3.07098,-2.45207 -1.26087,-0.4384 -2.75856,-0.40924 -6.12132,0.79621 -3.36277,1.20545 -8.59019,3.58702 -13.55723,6.20658 -4.96703,2.61956 -9.67332,5.47688 -12.33236,7.07659 -2.65904,1.5997 -3.27074,1.94172 -4.14999,2.2273 -0.87925,0.28558 -2.02605,0.51478 -3.34773,0.67515 -1.32169,0.16038 -2.81821,0.25194 -3.83824,0.36957 -1.02002,0.11763 -1.56346,0.26131 -2.72901,0.70817 -1.16554,0.44685 -2.95308,1.19683 -4.94417,2.41215 -1.9911,1.21532 -4.18559,2.89582 -6.02846,4.3671 -1.84288,1.47128 -3.33402,2.73324 -5.65301,4.90742 -2.31899,2.17418 -5.46567,5.26041 -8.20732,8.28883 -2.74165,3.02841 -5.07812,5.9988 -6.80965,8.56779 -1.73152,2.569 -2.85802,4.73639 -4.35873,7.46796 -1.50071,2.73157 -3.37549,6.02712 -4.97457,9.85822 -1.59908,3.83109 -2.92239,8.19738 -3.53101,10.88541 -0.60863,2.68804 -0.50267,3.69771 -0.44431,4.29057 0.0584,0.59287 0.0691,0.76891 0.0745,0.85673 0.005,0.0878 0.006,0.0878 -0.0565,0.15798 z"/><path fill="#f5b8bb" stroke="#f6a0a8" stroke-width="1.323" d="m 674.21092,349.16804 c -0.16433,-0.14538 -0.33022,-0.29214 -0.78914,-0.76115 -0.45892,-0.46901 -1.21124,-1.26061 -1.71738,-1.96878 -0.50614,-0.70817 -0.7713,-1.34583 -1.03414,-1.97793"/><path fill="#f5b8bb" stroke="#f6a0a8" stroke-width="1.323" d="m 681.38632,345.05531 c -1.43745,0.0305 -2.87505,0.0611 -4.27469,-0.10592 -1.39965,-0.16699 -2.76128,-0.53148 -3.66922,-0.68342 -0.90793,-0.15195 -1.36159,-0.0913 -1.7479,-0.0235 -0.38631,0.0678 -0.70541,0.14275 -1.65375,0.14389 -0.94835,0.001 -2.52615,-0.0715 -3.75314,-0.24325 -1.22699,-0.17176 -2.10317,-0.44274 -3.05178,-0.89337 -0.94861,-0.45063 -1.96969,-1.08095 -2.60022,-1.54589 -0.63052,-0.46494 -0.85074,-0.74028 -0.98731,-1.04995 -0.13657,-0.30966 -0.17956,-0.64177 -0.22264,-0.97456"/><path fill="#f5b8bb" stroke="#f6a0a8" stroke-width="1.323" d="m 677.48085,330.19414 c -4.63802,2.57695 -9.27573,5.15373 -12.28491,6.73458 -3.00917,1.58085 -4.38991,2.16586 -7.33489,3.61462 -2.94497,1.44877 -7.45394,3.76114 -10.39532,4.78345 -2.94138,1.02231 -4.36861,0.7442 -5.81644,0.0725 -1.44782,-0.67166 -2.94294,-1.74231 -3.62381,-2.99544 -0.68086,-1.25312 -0.54722,-2.68926 -0.26994,-3.78827 0.27729,-1.09901 0.6985,-1.86072 1.43099,-2.64122 0.73249,-0.7805 1.77626,-1.57949 5.90054,-3.98051 4.12427,-2.40102 11.32874,-6.4038 16.59399,-9.47578 5.26525,-3.07197 8.59096,-5.21295 11.917,-7.35414"/><path fill="#f5b8bb" stroke="#f6a0a8" stroke-width="1.323" d="m 668.67443,299.95173 c -0.37017,0.14865 -0.73933,0.2969 -4.0602,2.97365 -3.32086,2.67675 -9.59279,7.88151 -14.47732,11.76051 -4.88452,3.87901 -8.45162,6.48338 -10.46534,8.35591 -2.01373,1.87253 -2.5091,3.03832 -2.66343,4.3573 -0.15432,1.31897 0.0321,2.79107 0.43541,3.81595 0.40329,1.02488 1.02318,1.60304 1.69512,2.04711 0.67193,0.44406 1.39609,0.75423 2.11987,1.06424"/><path fill="#f5b8bb" stroke="#f6a0a8" stroke-width="1.323" d="m 646.86194,314.54316 c -0.15663,-1.7973 -0.31332,-3.59539 -0.51515,-4.66469 -0.20182,-1.06931 -0.46716,-1.43451 -0.72394,-1.78794"/><path fill="#f5b8bb" stroke="#f6a0a8" stroke-width="1.323" d="m 605.70122,348.36049 c 0.81413,2.31713 1.62803,4.6336 2.93473,6.44055 1.3067,1.80695 3.10614,3.10481 4.90498,4.40224"/><path fill="#f5b8bb" stroke="#f6a0a8" stroke-width="1.323" d="m 638.286,345.86886 c -0.0862,0.0729 -0.17016,0.14397 -1.36281,1.06348 -1.19264,0.91951 -3.49279,2.68653 -5.7092,3.73885 -2.21642,1.05233 -4.393,1.39714 -6.54754,1.73845"/><path fill="#f5b8bb" stroke="#f6a0a8" stroke-width="1.323" d="m 642.34454,311.08226 c -0.0761,0.038 -0.15175,0.0759 -1.12396,0.41317 -0.97221,0.33729 -2.84063,0.9739 -4.75726,1.28418 -1.91663,0.31028 -3.88146,0.29432 -5.84648,0.27835"/><path fill="#f5b8bb" stroke="#f6a0a8" stroke-width="1.323" d="m 664.04406,280.23524 c 0.85134,-0.38004 1.70283,-0.76014 2.41362,-1.01451 0.7108,-0.25437 1.28082,-0.38297 1.92513,-0.32085 0.64431,0.0621 1.36271,0.31497 1.96294,0.74303 0.60022,0.42805 1.0823,1.03118 1.28572,1.74124 0.20341,0.71005 0.12843,1.52681 -0.008,2.42938 -0.13615,0.90257 -0.33339,1.89087 -0.87706,2.96281 -0.54367,1.07194 -1.43357,2.22753 -2.431,3.41318 -0.99743,1.18566 -2.10229,2.40133 -3.05857,3.36578 -0.95628,0.96445 -1.76391,1.67769 -2.74161,2.29197 -0.97771,0.61428 -2.12544,1.12965 -3.32365,1.66749 -1.19821,0.53784 -2.4468,1.09811 -3.90747,1.97065 -1.46066,0.87254 -3.13325,2.05724 -4.36705,3.12871 -1.23379,1.07147 -2.02868,2.02952 -2.78775,2.91729 -0.75906,0.88776 -1.48222,1.70516 -2.23539,2.41506 -0.75318,0.70989 -1.53636,1.31233 -2.31936,1.91462"/><path fill="#a6bbff" d="m 439.25159,348.78552 c -14.95225,52.93691 17.1051,150.04826 60.49715,183.76511 21.81322,16.9495 54.71271,6.21735 62.25872,-20.37118 15.01079,-52.8911 -16.79082,-150.08644 -60.16245,-183.87467 -21.92029,-17.07675 -55.03652,-6.27379 -62.59342,20.48074 z"/><path fill="#a6bbff" d="m 597.56098,355.40714 c 0.26619,-0.1058 0.57138,-0.47588 0.79888,-0.3067 0,0 29.18111,21.71827 43.77399,32.5743 0.0881,0.0659 -0.0799,0.87315 -0.089,0.98288 -4.13,52.46106 -50.26141,142.74526 -112.8665,152.10787 -18.30274,2.73713 -46.56587,-8.26917 -44.58715,-32.86658 4.21876,-52.44444 63.91665,-133.0028 112.96971,-152.49172 z"/><path fill="#a6bbff" stroke="#99b1ff" stroke-width="2.646" d="m 496.75245,466.5773 c 1.08975,-2.65757 2.17959,-5.31536 4.74099,-10.23355 2.5614,-4.91819 6.59421,-12.09639 10.45561,-18.40498 3.86141,-6.3086 7.55119,-11.74721 11.52946,-17.22464 3.97828,-5.47743 8.24469,-10.99317 12.48506,-16.00135 4.24038,-5.00818 8.53515,-9.59462 13.72543,-14.64308 5.19027,-5.04847 11.3161,-10.60173 17.21474,-15.35314 5.89864,-4.75142 12.33197,-9.2315 16.66482,-11.88205 4.33286,-2.65055 9.23079,-5.10242 11.67229,-6.20726 2.44151,-1.10485 3.03049,-1.15306 3.59805,-0.98783 0.56757,0.16524 1.233,0.57804 8.02179,5.62999 6.78879,5.05195 21.03793,15.74199 27.22927,20.49534 6.19135,4.75335 7.10387,5.70361 7.9315,6.56546"/><path fill="none" stroke="#99b1ff" stroke-width="2.646" d="m 470.24808,376.26237 c 4.21828,16.07463 8.43639,32.14859 11.5989,49.99213 3.1625,17.84354 5.26914,37.45476 8.66289,55.57687 3.39375,18.12211 8.07423,34.75323 12.75472,51.38438"/><path fill="#a6bbff" d="m 126.28391,381.83173 c -34.238025,46.10908 -33.937565,149.37503 0.39312,195.35965 17.25807,23.1165 55.88623,23.14781 73.12104,0 34.28424,-46.04672 34.28424,-149.31296 0,-195.35968 -17.32746,-23.27225 -56.21015,-23.30366 -73.51416,3e-5 z"/><path fill="#f5b8bb" d="m 392.97761,443.29925 c -0.0626,-0.84403 -0.18793,-2.53222 -0.95921,-3.71901 -0.77128,-1.1868 -2.18796,-1.87122 -4.01117,-1.76097 -1.82321,0.11025 -4.05256,1.01472 -7.71264,3.20146 -3.66008,2.18674 -8.75062,5.65548 -12.50921,8.04752 -3.75859,2.39205 -6.1851,3.70741 -9.40575,5.26742 -3.22065,1.56001 -7.23533,3.36467 -10.81054,5.25208 -3.5752,1.88742 -6.71044,3.85721 -9.96331,7.02243 -3.25288,3.16522 -6.62292,7.52513 -8.8581,10.86473 -2.23518,3.33961 -3.33552,5.65873 -4.39755,7.41654 -1.06204,1.75781 -2.08581,2.9546 -4.94184,4.19458 -2.85602,1.23998 -7.5435,2.52315 -12.20207,3.59538 -4.65858,1.07224 -9.2874,1.93341 -11.77393,2.72047 -2.48653,0.78706 -2.83058,1.49866 -2.43665,7.7936 0.39393,6.29495 1.52578,18.17267 2.21285,24.23739 0.68707,6.06473 0.92792,6.31507 4.17352,6.21603 3.24561,-0.0991 9.4948,-0.54891 13.28374,-0.65624 3.78893,-0.10734 5.11712,0.12788 6.95428,0.0756 1.83716,-0.0523 4.18295,-0.39234 6.80136,-0.68911 2.61841,-0.29676 5.50883,-0.55013 10.4802,-1.26251 4.97137,-0.71238 12.0228,-1.8837 17.22321,-2.60086 5.20041,-0.71717 8.54918,-0.98006 11.13786,-1.27265 2.58868,-0.2926 4.41696,-0.61492 5.94775,-1.44448 1.53078,-0.82955 2.76409,-2.16675 3.49234,-3.06598 0.72824,-0.89922 0.95158,-1.36111 1.05778,-1.78636 0.10619,-0.42525 0.0952,-0.8125 0.3191,-1.08951 0.22385,-0.27701 0.68406,-0.44283 1.0041,-0.5417 0.32005,-0.0989 0.49946,-0.13065 1.56923,-1.00779 1.06978,-0.87714 3.01943,-2.59116 4.71927,-4.36553 1.69985,-1.77437 3.14485,-3.60481 4.38809,-5.64669 1.24324,-2.04188 2.28465,-4.29531 2.77769,-5.48277 0.49303,-1.18746 0.43695,-1.30972 0.40892,-1.37081 -0.028,-0.0611 0.68635,-1.07797 2.96262,-2.90486 2.27627,-1.8269 6.82925,-5.48105 10.1397,-8.14319 3.31046,-2.66215 5.37827,-4.3322 6.9105,-5.69418 1.53222,-1.36199 2.52834,-2.41559 3.27662,-3.44813 0.74828,-1.03254 1.24868,-2.04429 1.60283,-3.16775 0.35415,-1.12346 0.56194,-2.35868 1.03276,-3.22617 0.47081,-0.86749 1.20477,-1.36734 4.80963,-3.84095 3.60486,-2.4736 10.08044,-6.92083 13.01113,-9.96926 2.93068,-3.04843 2.31622,-4.69743 1.43495,-5.8084 -0.88128,-1.11096 -2.02832,-1.68289 -3.24755,-1.95381 -1.21923,-0.27092 -2.50852,-0.24046 -4.28363,0.29796 -1.77511,0.53841 -4.03489,1.58446 -5.1327,1.74385 -1.09782,0.15938 -1.03399,-0.56791 -0.73096,-1.68743 0.30304,-1.11952 0.84553,-2.63181 1.23869,-3.86485 0.39316,-1.23304 0.63692,-2.18668 0.62002,-3.07809 -0.0169,-0.89141 -0.29438,-1.71986 -1.12184,-2.16734 -0.82746,-0.44748 -2.20328,-0.51332 -3.28182,-0.27494 -1.07855,0.23838 -1.85842,0.78053 -2.76598,1.97003 -0.90756,1.18951 -1.94242,3.0258 -2.91111,5.33513 -0.9687,2.30933 -1.87122,5.09125 -2.58512,7.00681 -0.71391,1.91557 -1.23912,2.96463 -2.63379,3.8159 -1.39467,0.85127 -3.65848,1.50531 -6.24581,2.84827 -2.58734,1.34297 -5.49803,3.37453 -8.77264,5.23307 -3.27461,1.85853 -6.91267,3.54397 -10.43128,4.55549 -3.5186,1.01152 -6.91702,1.34916 -9.56426,1.19579 -2.64724,-0.15337 -4.54327,-0.79755 -5.71084,-1.54991 -1.16756,-0.75235 -1.60698,-1.61266 -1.61629,-2.6344 -0.009,-1.02173 0.41173,-2.20539 1.85314,-3.52413 1.44142,-1.31874 3.90359,-2.77285 6.4924,-4.52251 2.5888,-1.74966 5.30399,-3.79482 7.87258,-5.97532 2.56858,-2.1805 4.9903,-4.49617 6.61155,-6.82918 1.62125,-2.333 2.44137,-4.68277 2.8516,-5.85811 0.41022,-1.17534 0.40822,-1.17761 0.34558,-2.02164 z"/><path fill="#f5b8bb" stroke="#f6a0a8" stroke-width="1.323" d="m 414.55031,476.31851 c -0.62553,0.19571 -1.25021,0.39115 -6.40537,3.71123 -5.15516,3.32009 -14.84028,9.76433 -24.52526,16.20848"/><path fill="#f5b8bb" stroke="#f6a0a8" stroke-width="1.323" d="m 377.82488,502.81822 c -1.5062,1.29443 -3.01162,2.58818 -6.96605,3.6807 -3.95443,1.09253 -10.35751,1.98388 -15.52644,3.04232 -5.16893,1.05845 -9.1038,2.28384 -13.03808,3.50904"/><path fill="#f5b8bb" stroke="#f6a0a8" stroke-width="1.323" d="m 385.13966,506.64122 c -0.69223,0.81961 -1.13868,1.34822 -3.84806,3.5736 -2.70939,2.22538 -6.75939,5.24498 -9.54819,6.78639 -2.78879,1.5414 -4.31576,1.60475 -5.84227,1.66809"/><path fill="#f5b8bb" stroke="#f6a0a8" stroke-width="1.323" d="m 358.11716,521.74551 c -4.05215,0.37245 -8.1039,0.74486 -12.15493,1.11721"/><path fill="#a6bbff" d="m 308.60379,491.66715 c 0.26766,0.0924 0.73375,0.005 0.79634,0.28554 0,0 8.01639,35.98509 12.02832,53.97674 0.024,0.10888 -0.61891,0.62539 -0.69595,0.70463 -36.68048,38.01601 -129.11686,77.86317 -182.1313,44.09749 -15.49887,-9.87151 -29.68214,-36.93975 -12.45201,-54.7366 36.73651,-37.94493 133.13731,-61.35049 182.45452,-44.3278 z"/><path fill="none" stroke="#99b1ff" stroke-width="2.646" d="m 185.60959,369.60145 c 5.47907,3.74977 10.9577,7.49925 15.60085,13.01379 4.64316,5.51454 8.45049,12.79341 12.42422,24.16166 3.97372,11.36826 8.11341,26.82445 10.10676,40.85515 1.99336,14.03071 1.84021,26.63449 1.68706,39.23819"/><path fill="none" stroke="#99b1ff" stroke-width="2.646" d="m 161.73185,511.8899 c 2.51951,-1.34868 5.03923,-2.69748 10.11103,-4.8364 5.07179,-2.13893 12.69528,-5.06778 19.63344,-7.43394 6.93816,-2.36616 13.19056,-4.16948 19.6845,-5.81385 6.49393,-1.64437 13.22881,-3.12963 19.61926,-4.23796 6.39045,-1.10832 12.55179,-1.85362 19.68147,-2.37061 7.12969,-0.517 15.28516,-0.81265 22.75679,-0.63478 7.47162,0.17787 15.17109,0.91681 20.12196,1.69921 4.95086,0.7824 10.19898,2.0894 12.73994,2.83201 2.54096,0.74261 3.01419,1.09122 3.334,1.58919 0.31981,0.49797 0.55681,1.25914 2.4222,9.63032 1.86538,8.37117 5.72538,26.00869 7.30437,33.79686 1.57899,7.78818 1.58563,9.22286 1.2954,10.14918 -0.29024,0.92631 -0.87684,1.4778 -2.94382,3.35112 -2.06697,1.87332 -5.61386,5.06806 -9.65768,8.32076 -4.04383,3.25271 -8.58428,6.56317 -13.84689,10.00056 -5.26261,3.43738 -11.28156,7.02207 -16.58711,10.07534 -5.30554,3.05326 -9.91464,5.58523 -15.43688,8.12986 -5.52224,2.54462 -11.95713,5.10171 -20.18947,7.6816 -8.23234,2.57989 -18.26147,5.18242 -28.29058,7.78494"/></svg>