<svg xmlns="http://www.w3.org/2000/svg" width="91" height="83" fill="none" viewBox="0 0 143 143"><path fill="#3B404E" d="M142.5 72C103.6 72 72 103.6 72 142.5c0 .3-.2.5-.5.5s-.5-.2-.5-.5C71 103.6 39.4 72 .5 72c-.3 0-.5-.2-.5-.5s.2-.5.5-.5C39.4 71 71 39.4 71 .5c0-.3.2-.5.5-.5s.5.2.5.5C72 39.4 103.6 71 142.5 71c.3 0 .5.2.5.5s-.2.5-.5.5zm-39-52.5c10.5 0 19-8.5 19-19 0-.3.2-.5.5-.5s.5.2.5.5c0 10.5 8.5 19 19 19 .3 0 .5.2.5.5s-.2.5-.5.5c-10.5 0-19 8.5-19 19 0 .3-.2.5-.5.5s-.5-.2-.5-.5c0-10.5-8.5-19-19-19-.3 0-.5-.2-.5-.5s.2-.5.5-.5zm-70 104c-7.2 0-13 5.8-13 13 0 .3-.2.5-.5.5s-.5-.2-.5-.5c0-7.2-5.8-13-13-13-.3 0-.5-.2-.5-.5s.2-.5.5-.5c7.2 0 13-5.8 13-13 0-.3.2-.5.5-.5s.5.2.5.5c0 7.2 5.8 13 13 13 .3 0 .5.2.5.5s-.2.5-.5.5z" opacity=".5"/></svg>